<?xml version="1.0" encoding="utf-8" standalone="no"?>
<!DOCTYPE svg PUBLIC "-//W3C//DTD SVG 1.1//EN"
  "http://www.w3.org/Graphics/SVG/1.1/DTD/svg11.dtd">
<svg xmlns:xlink="http://www.w3.org/1999/xlink" width="627.824062pt" height="404.628356pt" viewBox="0 0 627.824062 404.628356" xmlns="http://www.w3.org/2000/svg" version="1.1">
 <metadata>
  <rdf:RDF xmlns:dc="http://purl.org/dc/elements/1.1/" xmlns:cc="http://creativecommons.org/ns#" xmlns:rdf="http://www.w3.org/1999/02/22-rdf-syntax-ns#">
   <cc:Work>
    <dc:type rdf:resource="http://purl.org/dc/dcmitype/StillImage"/>
    <dc:date>2026-08-06T16:23:09.607873</dc:date>
    <dc:format>image/svg+xml</dc:format>
    <dc:creator>
     <cc:Agent>
      <dc:title>Matplotlib v3.10.8, https://matplotlib.org/</dc:title>
     </cc:Agent>
    </dc:creator>
   </cc:Work>
  </rdf:RDF>
 </metadata>
 <defs>
  <style type="text/css">*{stroke-linejoin: round; stroke-linecap: butt}</style>
 </defs>
 <g id="figure_1">
  <g id="patch_1">
   <path d="M 0 404.628356 
L 627.824062 404.628356 
L 627.824062 0 
L 0 0 
z
" style="fill: #ffffff"/>
  </g>
  <g id="axes_1">
   <g id="patch_2">
    <path d="M 45.704063 316.921813 
L 614.864063 316.921813 
L 614.864063 39.721813 
L 45.704063 39.721813 
z
" style="fill: #ffffff"/>
   </g>
   <g id="patch_3">
    <path d="M 71.574972 316.921813 
L 80.089448 316.921813 
L 80.089448 110.313117 
L 71.574972 110.313117 
z
" clip-path="url(#p691f27472b)" style="fill: #2563eb; opacity: 0.9"/>
   </g>
   <g id="patch_4">
    <path d="M 104.322958 316.921813 
L 112.837434 316.921813 
L 112.837434 79.321813 
L 104.322958 79.321813 
z
" clip-path="url(#p691f27472b)" style="fill: #2563eb; opacity: 0.9"/>
   </g>
   <g id="patch_5">
    <path d="M 137.070944 316.921813 
L 145.58542 316.921813 
L 145.58542 154.460274 
L 137.070944 154.460274 
z
" clip-path="url(#p691f27472b)" style="fill: #2563eb; opacity: 0.9"/>
   </g>
   <g id="patch_6">
    <path d="M 169.81893 316.921813 
L 178.333407 316.921813 
L 178.333407 95.161813 
L 169.81893 95.161813 
z
" clip-path="url(#p691f27472b)" style="fill: #2563eb; opacity: 0.9"/>
   </g>
   <g id="patch_7">
    <path d="M 202.566916 316.921813 
L 211.081393 316.921813 
L 211.081393 72.052247 
L 202.566916 72.052247 
z
" clip-path="url(#p691f27472b)" style="fill: #2563eb; opacity: 0.9"/>
   </g>
   <g id="patch_8">
    <path d="M 235.314903 316.921813 
L 243.829379 316.921813 
L 243.829379 76.921813 
L 235.314903 76.921813 
z
" clip-path="url(#p691f27472b)" style="fill: #2563eb; opacity: 0.9"/>
   </g>
   <g id="patch_9">
    <path d="M 268.062889 316.921813 
L 276.577365 316.921813 
L 276.577365 52.921813 
L 268.062889 52.921813 
z
" clip-path="url(#p691f27472b)" style="fill: #2563eb; opacity: 0.9"/>
   </g>
   <g id="patch_10">
    <path d="M 300.810875 316.921813 
L 309.325351 316.921813 
L 309.325351 68.451224 
L 300.810875 68.451224 
z
" clip-path="url(#p691f27472b)" style="fill: #2563eb; opacity: 0.9"/>
   </g>
   <g id="patch_11">
    <path d="M 333.558861 316.921813 
L 342.073338 316.921813 
L 342.073338 96.921813 
L 333.558861 96.921813 
z
" clip-path="url(#p691f27472b)" style="fill: #2563eb; opacity: 0.9"/>
   </g>
   <g id="patch_12">
    <path d="M 366.306847 316.921813 
L 374.821324 316.921813 
L 374.821324 196.921813 
L 366.306847 196.921813 
z
" clip-path="url(#p691f27472b)" style="fill: #2563eb; opacity: 0.9"/>
   </g>
   <g id="patch_13">
    <path d="M 399.054834 316.921813 
L 407.56931 316.921813 
L 407.56931 134.152582 
L 399.054834 134.152582 
z
" clip-path="url(#p691f27472b)" style="fill: #2563eb; opacity: 0.9"/>
   </g>
   <g id="patch_14">
    <path d="M 431.80282 316.921813 
L 440.317296 316.921813 
L 440.317296 121.791378 
L 431.80282 121.791378 
z
" clip-path="url(#p691f27472b)" style="fill: #2563eb; opacity: 0.9"/>
   </g>
   <g id="patch_15">
    <path d="M 464.550806 316.921813 
L 473.065282 316.921813 
L 473.065282 158.521813 
L 464.550806 158.521813 
z
" clip-path="url(#p691f27472b)" style="fill: #2563eb; opacity: 0.9"/>
   </g>
   <g id="patch_16">
    <path d="M 497.298792 316.921813 
L 505.813268 316.921813 
L 505.813268 228.921813 
L 497.298792 228.921813 
z
" clip-path="url(#p691f27472b)" style="fill: #2563eb; opacity: 0.9"/>
   </g>
   <g id="patch_17">
    <path d="M 530.046778 316.921813 
L 538.561255 316.921813 
L 538.561255 52.921813 
L 530.046778 52.921813 
z
" clip-path="url(#p691f27472b)" style="fill: #2563eb; opacity: 0.9"/>
   </g>
   <g id="patch_18">
    <path d="M 562.794764 316.921813 
L 571.309241 316.921813 
L 571.309241 109.493241 
L 562.794764 109.493241 
z
" clip-path="url(#p691f27472b)" style="fill: #2563eb; opacity: 0.9"/>
   </g>
   <g id="patch_19">
    <path d="M 80.416928 316.921813 
L 88.931404 316.921813 
L 88.931404 110.313117 
L 80.416928 110.313117 
z
" clip-path="url(#p691f27472b)" style="fill: #15803d; opacity: 0.9"/>
   </g>
   <g id="patch_20">
    <path d="M 113.164914 316.921813 
L 121.67939 316.921813 
L 121.67939 110.313117 
L 113.164914 110.313117 
z
" clip-path="url(#p691f27472b)" style="fill: #15803d; opacity: 0.9"/>
   </g>
   <g id="patch_21">
    <path d="M 145.9129 316.921813 
L 154.427377 316.921813 
L 154.427377 105.721813 
L 145.9129 105.721813 
z
" clip-path="url(#p691f27472b)" style="fill: #15803d; opacity: 0.9"/>
   </g>
   <g id="patch_22">
    <path d="M 178.660886 316.921813 
L 187.175363 316.921813 
L 187.175363 111.588479 
L 178.660886 111.588479 
z
" clip-path="url(#p691f27472b)" style="fill: #15803d; opacity: 0.9"/>
   </g>
   <g id="patch_23">
    <path d="M 211.408873 316.921813 
L 219.923349 316.921813 
L 219.923349 91.641813 
L 211.408873 91.641813 
z
" clip-path="url(#p691f27472b)" style="fill: #15803d; opacity: 0.9"/>
   </g>
   <g id="patch_24">
    <path d="M 244.156859 316.921813 
L 252.671335 316.921813 
L 252.671335 71.340417 
L 244.156859 71.340417 
z
" clip-path="url(#p691f27472b)" style="fill: #15803d; opacity: 0.9"/>
   </g>
   <g id="patch_25">
    <path d="M 276.904845 316.921813 
L 285.419321 316.921813 
L 285.419321 52.921813 
L 276.904845 52.921813 
z
" clip-path="url(#p691f27472b)" style="fill: #15803d; opacity: 0.9"/>
   </g>
   <g id="patch_26">
    <path d="M 309.652831 316.921813 
L 318.167308 316.921813 
L 318.167308 105.721813 
L 309.652831 105.721813 
z
" clip-path="url(#p691f27472b)" style="fill: #15803d; opacity: 0.9"/>
   </g>
   <g id="patch_27">
    <path d="M 342.400817 316.921813 
L 350.915294 316.921813 
L 350.915294 76.921813 
L 342.400817 76.921813 
z
" clip-path="url(#p691f27472b)" style="fill: #15803d; opacity: 0.9"/>
   </g>
   <g id="patch_28">
    <path d="M 375.148804 316.921813 
L 383.66328 316.921813 
L 383.66328 151.921813 
L 375.148804 151.921813 
z
" clip-path="url(#p691f27472b)" style="fill: #15803d; opacity: 0.9"/>
   </g>
   <g id="patch_29">
    <path d="M 407.89679 316.921813 
L 416.411266 316.921813 
L 416.411266 79.321813 
L 407.89679 79.321813 
z
" clip-path="url(#p691f27472b)" style="fill: #15803d; opacity: 0.9"/>
   </g>
   <g id="patch_30">
    <path d="M 440.644776 316.921813 
L 449.159252 316.921813 
L 449.159252 52.921813 
L 440.644776 52.921813 
z
" clip-path="url(#p691f27472b)" style="fill: #15803d; opacity: 0.9"/>
   </g>
   <g id="patch_31">
    <path d="M 473.392762 316.921813 
L 481.907239 316.921813 
L 481.907239 52.921813 
L 473.392762 52.921813 
z
" clip-path="url(#p691f27472b)" style="fill: #15803d; opacity: 0.9"/>
   </g>
   <g id="patch_32">
    <path d="M 506.140748 316.921813 
L 514.655225 316.921813 
L 514.655225 203.778955 
L 506.140748 203.778955 
z
" clip-path="url(#p691f27472b)" style="fill: #15803d; opacity: 0.9"/>
   </g>
   <g id="patch_33">
    <path d="M 538.888735 316.921813 
L 547.403211 316.921813 
L 547.403211 52.921813 
L 538.888735 52.921813 
z
" clip-path="url(#p691f27472b)" style="fill: #15803d; opacity: 0.9"/>
   </g>
   <g id="patch_34">
    <path d="M 571.636721 316.921813 
L 580.151197 316.921813 
L 580.151197 135.421813 
L 571.636721 135.421813 
z
" clip-path="url(#p691f27472b)" style="fill: #15803d; opacity: 0.9"/>
   </g>
   <g id="patch_35">
    <path d="M 89.258884 316.921813 
L 97.773361 316.921813 
L 97.773361 110.313117 
L 89.258884 110.313117 
z
" clip-path="url(#p691f27472b)" style="fill: #7c3aed; opacity: 0.9"/>
   </g>
   <g id="patch_36">
    <path d="M 122.00687 316.921813 
L 130.521347 316.921813 
L 130.521347 95.898557 
L 122.00687 95.898557 
z
" clip-path="url(#p691f27472b)" style="fill: #7c3aed; opacity: 0.9"/>
   </g>
   <g id="patch_37">
    <path d="M 154.754857 316.921813 
L 163.269333 316.921813 
L 163.269333 133.269639 
L 154.754857 133.269639 
z
" clip-path="url(#p691f27472b)" style="fill: #7c3aed; opacity: 0.9"/>
   </g>
   <g id="patch_38">
    <path d="M 187.502843 316.921813 
L 196.017319 316.921813 
L 196.017319 103.691043 
L 187.502843 103.691043 
z
" clip-path="url(#p691f27472b)" style="fill: #7c3aed; opacity: 0.9"/>
   </g>
   <g id="patch_39">
    <path d="M 220.250829 316.921813 
L 228.765305 316.921813 
L 228.765305 82.255146 
L 220.250829 82.255146 
z
" clip-path="url(#p691f27472b)" style="fill: #7c3aed; opacity: 0.9"/>
   </g>
   <g id="patch_40">
    <path d="M 252.998815 316.921813 
L 261.513291 316.921813 
L 261.513291 74.163192 
L 252.998815 74.163192 
z
" clip-path="url(#p691f27472b)" style="fill: #7c3aed; opacity: 0.9"/>
   </g>
   <g id="patch_41">
    <path d="M 285.746801 316.921813 
L 294.261278 316.921813 
L 294.261278 52.921813 
L 285.746801 52.921813 
z
" clip-path="url(#p691f27472b)" style="fill: #7c3aed; opacity: 0.9"/>
   </g>
   <g id="patch_42">
    <path d="M 318.494787 316.921813 
L 327.009264 316.921813 
L 327.009264 88.597488 
L 318.494787 88.597488 
z
" clip-path="url(#p691f27472b)" style="fill: #7c3aed; opacity: 0.9"/>
   </g>
   <g id="patch_43">
    <path d="M 351.242774 316.921813 
L 359.75725 316.921813 
L 359.75725 87.356595 
L 351.242774 87.356595 
z
" clip-path="url(#p691f27472b)" style="fill: #7c3aed; opacity: 0.9"/>
   </g>
   <g id="patch_44">
    <path d="M 383.99076 316.921813 
L 392.505236 316.921813 
L 392.505236 177.974444 
L 383.99076 177.974444 
z
" clip-path="url(#p691f27472b)" style="fill: #7c3aed; opacity: 0.9"/>
   </g>
   <g id="patch_45">
    <path d="M 416.738746 316.921813 
L 425.253222 316.921813 
L 425.253222 110.313117 
L 416.738746 110.313117 
z
" clip-path="url(#p691f27472b)" style="fill: #7c3aed; opacity: 0.9"/>
   </g>
   <g id="patch_46">
    <path d="M 449.486732 316.921813 
L 458.001209 316.921813 
L 458.001209 92.521813 
L 449.486732 92.521813 
z
" clip-path="url(#p691f27472b)" style="fill: #7c3aed; opacity: 0.9"/>
   </g>
   <g id="patch_47">
    <path d="M 482.234718 316.921813 
L 490.749195 316.921813 
L 490.749195 118.921813 
L 482.234718 118.921813 
z
" clip-path="url(#p691f27472b)" style="fill: #7c3aed; opacity: 0.9"/>
   </g>
   <g id="patch_48">
    <path d="M 514.982705 316.921813 
L 523.497181 316.921813 
L 523.497181 217.921813 
L 514.982705 217.921813 
z
" clip-path="url(#p691f27472b)" style="fill: #7c3aed; opacity: 0.9"/>
   </g>
   <g id="patch_49">
    <path d="M 547.730691 316.921813 
L 556.245167 316.921813 
L 556.245167 52.921813 
L 547.730691 52.921813 
z
" clip-path="url(#p691f27472b)" style="fill: #7c3aed; opacity: 0.9"/>
   </g>
   <g id="patch_50">
    <path d="M 580.478677 316.921813 
L 588.993153 316.921813 
L 588.993153 123.321813 
L 580.478677 123.321813 
z
" clip-path="url(#p691f27472b)" style="fill: #7c3aed; opacity: 0.9"/>
   </g>
   <g id="matplotlib.axis_1">
    <g id="xtick_1">
     <g id="line2d_1">
      <defs>
       <path id="m44aa3f2a10" d="M 0 0 
L 0 3.5 
" style="stroke: #000000; stroke-width: 0.8"/>
      </defs>
      <g>
       <use xlink:href="#m44aa3f2a10" x="84.674166" y="316.921813" style="stroke: #000000; stroke-width: 0.8"/>
      </g>
     </g>
     <g id="text_1">
      <!-- acylglycerol -->
      <g transform="translate(52.522887 359.148241) rotate(-52) scale(0.068 -0.068)">
       <defs>
        <path id="DejaVuSans-61" d="M 2194 1759 
Q 1497 1759 1228 1600 
Q 959 1441 959 1056 
Q 959 750 1161 570 
Q 1363 391 1709 391 
Q 2188 391 2477 730 
Q 2766 1069 2766 1631 
L 2766 1759 
L 2194 1759 
z
M 3341 1997 
L 3341 0 
L 2766 0 
L 2766 531 
Q 2569 213 2275 61 
Q 1981 -91 1556 -91 
Q 1019 -91 701 211 
Q 384 513 384 1019 
Q 384 1609 779 1909 
Q 1175 2209 1959 2209 
L 2766 2209 
L 2766 2266 
Q 2766 2663 2505 2880 
Q 2244 3097 1772 3097 
Q 1472 3097 1187 3025 
Q 903 2953 641 2809 
L 641 3341 
Q 956 3463 1253 3523 
Q 1550 3584 1831 3584 
Q 2591 3584 2966 3190 
Q 3341 2797 3341 1997 
z
" transform="scale(0.015625)"/>
        <path id="DejaVuSans-63" d="M 3122 3366 
L 3122 2828 
Q 2878 2963 2633 3030 
Q 2388 3097 2138 3097 
Q 1578 3097 1268 2742 
Q 959 2388 959 1747 
Q 959 1106 1268 751 
Q 1578 397 2138 397 
Q 2388 397 2633 464 
Q 2878 531 3122 666 
L 3122 134 
Q 2881 22 2623 -34 
Q 2366 -91 2075 -91 
Q 1284 -91 818 406 
Q 353 903 353 1747 
Q 353 2603 823 3093 
Q 1294 3584 2113 3584 
Q 2378 3584 2631 3529 
Q 2884 3475 3122 3366 
z
" transform="scale(0.015625)"/>
        <path id="DejaVuSans-79" d="M 2059 -325 
Q 1816 -950 1584 -1140 
Q 1353 -1331 966 -1331 
L 506 -1331 
L 506 -850 
L 844 -850 
Q 1081 -850 1212 -737 
Q 1344 -625 1503 -206 
L 1606 56 
L 191 3500 
L 800 3500 
L 1894 763 
L 2988 3500 
L 3597 3500 
L 2059 -325 
z
" transform="scale(0.015625)"/>
        <path id="DejaVuSans-6c" d="M 603 4863 
L 1178 4863 
L 1178 0 
L 603 0 
L 603 4863 
z
" transform="scale(0.015625)"/>
        <path id="DejaVuSans-67" d="M 2906 1791 
Q 2906 2416 2648 2759 
Q 2391 3103 1925 3103 
Q 1463 3103 1205 2759 
Q 947 2416 947 1791 
Q 947 1169 1205 825 
Q 1463 481 1925 481 
Q 2391 481 2648 825 
Q 2906 1169 2906 1791 
z
M 3481 434 
Q 3481 -459 3084 -895 
Q 2688 -1331 1869 -1331 
Q 1566 -1331 1297 -1286 
Q 1028 -1241 775 -1147 
L 775 -588 
Q 1028 -725 1275 -790 
Q 1522 -856 1778 -856 
Q 2344 -856 2625 -561 
Q 2906 -266 2906 331 
L 2906 616 
Q 2728 306 2450 153 
Q 2172 0 1784 0 
Q 1141 0 747 490 
Q 353 981 353 1791 
Q 353 2603 747 3093 
Q 1141 3584 1784 3584 
Q 2172 3584 2450 3431 
Q 2728 3278 2906 2969 
L 2906 3500 
L 3481 3500 
L 3481 434 
z
" transform="scale(0.015625)"/>
        <path id="DejaVuSans-65" d="M 3597 1894 
L 3597 1613 
L 953 1613 
Q 991 1019 1311 708 
Q 1631 397 2203 397 
Q 2534 397 2845 478 
Q 3156 559 3463 722 
L 3463 178 
Q 3153 47 2828 -22 
Q 2503 -91 2169 -91 
Q 1331 -91 842 396 
Q 353 884 353 1716 
Q 353 2575 817 3079 
Q 1281 3584 2069 3584 
Q 2775 3584 3186 3129 
Q 3597 2675 3597 1894 
z
M 3022 2063 
Q 3016 2534 2758 2815 
Q 2500 3097 2075 3097 
Q 1594 3097 1305 2825 
Q 1016 2553 972 2059 
L 3022 2063 
z
" transform="scale(0.015625)"/>
        <path id="DejaVuSans-72" d="M 2631 2963 
Q 2534 3019 2420 3045 
Q 2306 3072 2169 3072 
Q 1681 3072 1420 2755 
Q 1159 2438 1159 1844 
L 1159 0 
L 581 0 
L 581 3500 
L 1159 3500 
L 1159 2956 
Q 1341 3275 1631 3429 
Q 1922 3584 2338 3584 
Q 2397 3584 2469 3576 
Q 2541 3569 2628 3553 
L 2631 2963 
z
" transform="scale(0.015625)"/>
        <path id="DejaVuSans-6f" d="M 1959 3097 
Q 1497 3097 1228 2736 
Q 959 2375 959 1747 
Q 959 1119 1226 758 
Q 1494 397 1959 397 
Q 2419 397 2687 759 
Q 2956 1122 2956 1747 
Q 2956 2369 2687 2733 
Q 2419 3097 1959 3097 
z
M 1959 3584 
Q 2709 3584 3137 3096 
Q 3566 2609 3566 1747 
Q 3566 888 3137 398 
Q 2709 -91 1959 -91 
Q 1206 -91 779 398 
Q 353 888 353 1747 
Q 353 2609 779 3096 
Q 1206 3584 1959 3584 
z
" transform="scale(0.015625)"/>
       </defs>
       <use xlink:href="#DejaVuSans-61"/>
       <use xlink:href="#DejaVuSans-63" transform="translate(61.279297 0)"/>
       <use xlink:href="#DejaVuSans-79" transform="translate(116.259766 0)"/>
       <use xlink:href="#DejaVuSans-6c" transform="translate(175.439453 0)"/>
       <use xlink:href="#DejaVuSans-67" transform="translate(203.222656 0)"/>
       <use xlink:href="#DejaVuSans-6c" transform="translate(266.699219 0)"/>
       <use xlink:href="#DejaVuSans-79" transform="translate(294.482422 0)"/>
       <use xlink:href="#DejaVuSans-63" transform="translate(353.662109 0)"/>
       <use xlink:href="#DejaVuSans-65" transform="translate(408.642578 0)"/>
       <use xlink:href="#DejaVuSans-72" transform="translate(470.166016 0)"/>
       <use xlink:href="#DejaVuSans-6f" transform="translate(509.029297 0)"/>
       <use xlink:href="#DejaVuSans-6c" transform="translate(570.210938 0)"/>
      </g>
      <!-- n=23 -->
      <g transform="translate(72.071105 346.495681) rotate(-52) scale(0.068 -0.068)">
       <defs>
        <path id="DejaVuSans-6e" d="M 3513 2113 
L 3513 0 
L 2938 0 
L 2938 2094 
Q 2938 2591 2744 2837 
Q 2550 3084 2163 3084 
Q 1697 3084 1428 2787 
Q 1159 2491 1159 1978 
L 1159 0 
L 581 0 
L 581 3500 
L 1159 3500 
L 1159 2956 
Q 1366 3272 1645 3428 
Q 1925 3584 2291 3584 
Q 2894 3584 3203 3211 
Q 3513 2838 3513 2113 
z
" transform="scale(0.015625)"/>
        <path id="DejaVuSans-3d" d="M 678 2906 
L 4684 2906 
L 4684 2381 
L 678 2381 
L 678 2906 
z
M 678 1631 
L 4684 1631 
L 4684 1100 
L 678 1100 
L 678 1631 
z
" transform="scale(0.015625)"/>
        <path id="DejaVuSans-32" d="M 1228 531 
L 3431 531 
L 3431 0 
L 469 0 
L 469 531 
Q 828 903 1448 1529 
Q 2069 2156 2228 2338 
Q 2531 2678 2651 2914 
Q 2772 3150 2772 3378 
Q 2772 3750 2511 3984 
Q 2250 4219 1831 4219 
Q 1534 4219 1204 4116 
Q 875 4013 500 3803 
L 500 4441 
Q 881 4594 1212 4672 
Q 1544 4750 1819 4750 
Q 2544 4750 2975 4387 
Q 3406 4025 3406 3419 
Q 3406 3131 3298 2873 
Q 3191 2616 2906 2266 
Q 2828 2175 2409 1742 
Q 1991 1309 1228 531 
z
" transform="scale(0.015625)"/>
        <path id="DejaVuSans-33" d="M 2597 2516 
Q 3050 2419 3304 2112 
Q 3559 1806 3559 1356 
Q 3559 666 3084 287 
Q 2609 -91 1734 -91 
Q 1441 -91 1130 -33 
Q 819 25 488 141 
L 488 750 
Q 750 597 1062 519 
Q 1375 441 1716 441 
Q 2309 441 2620 675 
Q 2931 909 2931 1356 
Q 2931 1769 2642 2001 
Q 2353 2234 1838 2234 
L 1294 2234 
L 1294 2753 
L 1863 2753 
Q 2328 2753 2575 2939 
Q 2822 3125 2822 3475 
Q 2822 3834 2567 4026 
Q 2313 4219 1838 4219 
Q 1578 4219 1281 4162 
Q 984 4106 628 3988 
L 628 4550 
Q 988 4650 1302 4700 
Q 1616 4750 1894 4750 
Q 2613 4750 3031 4423 
Q 3450 4097 3450 3541 
Q 3450 3153 3228 2886 
Q 3006 2619 2597 2516 
z
" transform="scale(0.015625)"/>
       </defs>
       <use xlink:href="#DejaVuSans-6e"/>
       <use xlink:href="#DejaVuSans-3d" transform="translate(63.378906 0)"/>
       <use xlink:href="#DejaVuSans-32" transform="translate(147.167969 0)"/>
       <use xlink:href="#DejaVuSans-33" transform="translate(210.791016 0)"/>
      </g>
     </g>
    </g>
    <g id="xtick_2">
     <g id="line2d_2">
      <g>
       <use xlink:href="#m44aa3f2a10" x="117.422152" y="316.921813" style="stroke: #000000; stroke-width: 0.8"/>
      </g>
     </g>
     <g id="text_2">
      <!-- carboxylic acid -->
      <g transform="translate(79.027758 367.139064) rotate(-52) scale(0.068 -0.068)">
       <defs>
        <path id="DejaVuSans-62" d="M 3116 1747 
Q 3116 2381 2855 2742 
Q 2594 3103 2138 3103 
Q 1681 3103 1420 2742 
Q 1159 2381 1159 1747 
Q 1159 1113 1420 752 
Q 1681 391 2138 391 
Q 2594 391 2855 752 
Q 3116 1113 3116 1747 
z
M 1159 2969 
Q 1341 3281 1617 3432 
Q 1894 3584 2278 3584 
Q 2916 3584 3314 3078 
Q 3713 2572 3713 1747 
Q 3713 922 3314 415 
Q 2916 -91 2278 -91 
Q 1894 -91 1617 61 
Q 1341 213 1159 525 
L 1159 0 
L 581 0 
L 581 4863 
L 1159 4863 
L 1159 2969 
z
" transform="scale(0.015625)"/>
        <path id="DejaVuSans-78" d="M 3513 3500 
L 2247 1797 
L 3578 0 
L 2900 0 
L 1881 1375 
L 863 0 
L 184 0 
L 1544 1831 
L 300 3500 
L 978 3500 
L 1906 2253 
L 2834 3500 
L 3513 3500 
z
" transform="scale(0.015625)"/>
        <path id="DejaVuSans-69" d="M 603 3500 
L 1178 3500 
L 1178 0 
L 603 0 
L 603 3500 
z
M 603 4863 
L 1178 4863 
L 1178 4134 
L 603 4134 
L 603 4863 
z
" transform="scale(0.015625)"/>
        <path id="DejaVuSans-20" transform="scale(0.015625)"/>
        <path id="DejaVuSans-64" d="M 2906 2969 
L 2906 4863 
L 3481 4863 
L 3481 0 
L 2906 0 
L 2906 525 
Q 2725 213 2448 61 
Q 2172 -91 1784 -91 
Q 1150 -91 751 415 
Q 353 922 353 1747 
Q 353 2572 751 3078 
Q 1150 3584 1784 3584 
Q 2172 3584 2448 3432 
Q 2725 3281 2906 2969 
z
M 947 1747 
Q 947 1113 1208 752 
Q 1469 391 1925 391 
Q 2381 391 2643 752 
Q 2906 1113 2906 1747 
Q 2906 2381 2643 2742 
Q 2381 3103 1925 3103 
Q 1469 3103 1208 2742 
Q 947 2381 947 1747 
z
" transform="scale(0.015625)"/>
       </defs>
       <use xlink:href="#DejaVuSans-63"/>
       <use xlink:href="#DejaVuSans-61" transform="translate(54.980469 0)"/>
       <use xlink:href="#DejaVuSans-72" transform="translate(116.259766 0)"/>
       <use xlink:href="#DejaVuSans-62" transform="translate(157.373047 0)"/>
       <use xlink:href="#DejaVuSans-6f" transform="translate(220.849609 0)"/>
       <use xlink:href="#DejaVuSans-78" transform="translate(278.90625 0)"/>
       <use xlink:href="#DejaVuSans-79" transform="translate(338.085938 0)"/>
       <use xlink:href="#DejaVuSans-6c" transform="translate(397.265625 0)"/>
       <use xlink:href="#DejaVuSans-69" transform="translate(425.048828 0)"/>
       <use xlink:href="#DejaVuSans-63" transform="translate(452.832031 0)"/>
       <use xlink:href="#DejaVuSans-20" transform="translate(507.8125 0)"/>
       <use xlink:href="#DejaVuSans-61" transform="translate(539.599609 0)"/>
       <use xlink:href="#DejaVuSans-63" transform="translate(600.878906 0)"/>
       <use xlink:href="#DejaVuSans-69" transform="translate(655.859375 0)"/>
       <use xlink:href="#DejaVuSans-64" transform="translate(683.642578 0)"/>
      </g>
      <!-- n=23 -->
      <g transform="translate(104.819091 346.495681) rotate(-52) scale(0.068 -0.068)">
       <use xlink:href="#DejaVuSans-6e"/>
       <use xlink:href="#DejaVuSans-3d" transform="translate(63.378906 0)"/>
       <use xlink:href="#DejaVuSans-32" transform="translate(147.167969 0)"/>
       <use xlink:href="#DejaVuSans-33" transform="translate(210.791016 0)"/>
      </g>
     </g>
    </g>
    <g id="xtick_3">
     <g id="line2d_3">
      <g>
       <use xlink:href="#m44aa3f2a10" x="150.170138" y="316.921813" style="stroke: #000000; stroke-width: 0.8"/>
      </g>
     </g>
     <g id="text_3">
      <!-- chromophore -->
      <g transform="translate(115.196898 362.760186) rotate(-52) scale(0.068 -0.068)">
       <defs>
        <path id="DejaVuSans-68" d="M 3513 2113 
L 3513 0 
L 2938 0 
L 2938 2094 
Q 2938 2591 2744 2837 
Q 2550 3084 2163 3084 
Q 1697 3084 1428 2787 
Q 1159 2491 1159 1978 
L 1159 0 
L 581 0 
L 581 4863 
L 1159 4863 
L 1159 2956 
Q 1366 3272 1645 3428 
Q 1925 3584 2291 3584 
Q 2894 3584 3203 3211 
Q 3513 2838 3513 2113 
z
" transform="scale(0.015625)"/>
        <path id="DejaVuSans-6d" d="M 3328 2828 
Q 3544 3216 3844 3400 
Q 4144 3584 4550 3584 
Q 5097 3584 5394 3201 
Q 5691 2819 5691 2113 
L 5691 0 
L 5113 0 
L 5113 2094 
Q 5113 2597 4934 2840 
Q 4756 3084 4391 3084 
Q 3944 3084 3684 2787 
Q 3425 2491 3425 1978 
L 3425 0 
L 2847 0 
L 2847 2094 
Q 2847 2600 2669 2842 
Q 2491 3084 2119 3084 
Q 1678 3084 1418 2786 
Q 1159 2488 1159 1978 
L 1159 0 
L 581 0 
L 581 3500 
L 1159 3500 
L 1159 2956 
Q 1356 3278 1631 3431 
Q 1906 3584 2284 3584 
Q 2666 3584 2933 3390 
Q 3200 3197 3328 2828 
z
" transform="scale(0.015625)"/>
        <path id="DejaVuSans-70" d="M 1159 525 
L 1159 -1331 
L 581 -1331 
L 581 3500 
L 1159 3500 
L 1159 2969 
Q 1341 3281 1617 3432 
Q 1894 3584 2278 3584 
Q 2916 3584 3314 3078 
Q 3713 2572 3713 1747 
Q 3713 922 3314 415 
Q 2916 -91 2278 -91 
Q 1894 -91 1617 61 
Q 1341 213 1159 525 
z
M 3116 1747 
Q 3116 2381 2855 2742 
Q 2594 3103 2138 3103 
Q 1681 3103 1420 2742 
Q 1159 2381 1159 1747 
Q 1159 1113 1420 752 
Q 1681 391 2138 391 
Q 2594 391 2855 752 
Q 3116 1113 3116 1747 
z
" transform="scale(0.015625)"/>
       </defs>
       <use xlink:href="#DejaVuSans-63"/>
       <use xlink:href="#DejaVuSans-68" transform="translate(54.980469 0)"/>
       <use xlink:href="#DejaVuSans-72" transform="translate(118.359375 0)"/>
       <use xlink:href="#DejaVuSans-6f" transform="translate(157.222656 0)"/>
       <use xlink:href="#DejaVuSans-6d" transform="translate(218.404297 0)"/>
       <use xlink:href="#DejaVuSans-6f" transform="translate(315.816406 0)"/>
       <use xlink:href="#DejaVuSans-70" transform="translate(376.998047 0)"/>
       <use xlink:href="#DejaVuSans-68" transform="translate(440.474609 0)"/>
       <use xlink:href="#DejaVuSans-6f" transform="translate(503.853516 0)"/>
       <use xlink:href="#DejaVuSans-72" transform="translate(565.035156 0)"/>
       <use xlink:href="#DejaVuSans-65" transform="translate(603.898438 0)"/>
      </g>
      <!-- n=10 -->
      <g transform="translate(137.567077 346.495681) rotate(-52) scale(0.068 -0.068)">
       <defs>
        <path id="DejaVuSans-31" d="M 794 531 
L 1825 531 
L 1825 4091 
L 703 3866 
L 703 4441 
L 1819 4666 
L 2450 4666 
L 2450 531 
L 3481 531 
L 3481 0 
L 794 0 
L 794 531 
z
" transform="scale(0.015625)"/>
        <path id="DejaVuSans-30" d="M 2034 4250 
Q 1547 4250 1301 3770 
Q 1056 3291 1056 2328 
Q 1056 1369 1301 889 
Q 1547 409 2034 409 
Q 2525 409 2770 889 
Q 3016 1369 3016 2328 
Q 3016 3291 2770 3770 
Q 2525 4250 2034 4250 
z
M 2034 4750 
Q 2819 4750 3233 4129 
Q 3647 3509 3647 2328 
Q 3647 1150 3233 529 
Q 2819 -91 2034 -91 
Q 1250 -91 836 529 
Q 422 1150 422 2328 
Q 422 3509 836 4129 
Q 1250 4750 2034 4750 
z
" transform="scale(0.015625)"/>
       </defs>
       <use xlink:href="#DejaVuSans-6e"/>
       <use xlink:href="#DejaVuSans-3d" transform="translate(63.378906 0)"/>
       <use xlink:href="#DejaVuSans-31" transform="translate(147.167969 0)"/>
       <use xlink:href="#DejaVuSans-30" transform="translate(210.791016 0)"/>
      </g>
     </g>
    </g>
    <g id="xtick_4">
     <g id="line2d_4">
      <g>
       <use xlink:href="#m44aa3f2a10" x="182.918125" y="316.921813" style="stroke: #000000; stroke-width: 0.8"/>
      </g>
     </g>
     <g id="text_4">
      <!-- fatty acid -->
      <g transform="translate(155.984923 352.469406) rotate(-52) scale(0.068 -0.068)">
       <defs>
        <path id="DejaVuSans-66" d="M 2375 4863 
L 2375 4384 
L 1825 4384 
Q 1516 4384 1395 4259 
Q 1275 4134 1275 3809 
L 1275 3500 
L 2222 3500 
L 2222 3053 
L 1275 3053 
L 1275 0 
L 697 0 
L 697 3053 
L 147 3053 
L 147 3500 
L 697 3500 
L 697 3744 
Q 697 4328 969 4595 
Q 1241 4863 1831 4863 
L 2375 4863 
z
" transform="scale(0.015625)"/>
        <path id="DejaVuSans-74" d="M 1172 4494 
L 1172 3500 
L 2356 3500 
L 2356 3053 
L 1172 3053 
L 1172 1153 
Q 1172 725 1289 603 
Q 1406 481 1766 481 
L 2356 481 
L 2356 0 
L 1766 0 
Q 1100 0 847 248 
Q 594 497 594 1153 
L 594 3053 
L 172 3053 
L 172 3500 
L 594 3500 
L 594 4494 
L 1172 4494 
z
" transform="scale(0.015625)"/>
       </defs>
       <use xlink:href="#DejaVuSans-66"/>
       <use xlink:href="#DejaVuSans-61" transform="translate(35.205078 0)"/>
       <use xlink:href="#DejaVuSans-74" transform="translate(96.484375 0)"/>
       <use xlink:href="#DejaVuSans-74" transform="translate(135.693359 0)"/>
       <use xlink:href="#DejaVuSans-79" transform="translate(174.902344 0)"/>
       <use xlink:href="#DejaVuSans-20" transform="translate(234.082031 0)"/>
       <use xlink:href="#DejaVuSans-61" transform="translate(265.869141 0)"/>
       <use xlink:href="#DejaVuSans-63" transform="translate(327.148438 0)"/>
       <use xlink:href="#DejaVuSans-69" transform="translate(382.128906 0)"/>
       <use xlink:href="#DejaVuSans-64" transform="translate(409.912109 0)"/>
      </g>
      <!-- n=27 -->
      <g transform="translate(170.315063 346.495681) rotate(-52) scale(0.068 -0.068)">
       <defs>
        <path id="DejaVuSans-37" d="M 525 4666 
L 3525 4666 
L 3525 4397 
L 1831 0 
L 1172 0 
L 2766 4134 
L 525 4134 
L 525 4666 
z
" transform="scale(0.015625)"/>
       </defs>
       <use xlink:href="#DejaVuSans-6e"/>
       <use xlink:href="#DejaVuSans-3d" transform="translate(63.378906 0)"/>
       <use xlink:href="#DejaVuSans-32" transform="translate(147.167969 0)"/>
       <use xlink:href="#DejaVuSans-37" transform="translate(210.791016 0)"/>
      </g>
     </g>
    </g>
    <g id="xtick_5">
     <g id="line2d_5">
      <g>
       <use xlink:href="#m44aa3f2a10" x="215.666111" y="316.921813" style="stroke: #000000; stroke-width: 0.8"/>
      </g>
     </g>
     <g id="text_5">
      <!-- free amino acid -->
      <g transform="translate(175.928112 368.858799) rotate(-52) scale(0.068 -0.068)">
       <use xlink:href="#DejaVuSans-66"/>
       <use xlink:href="#DejaVuSans-72" transform="translate(35.205078 0)"/>
       <use xlink:href="#DejaVuSans-65" transform="translate(74.068359 0)"/>
       <use xlink:href="#DejaVuSans-65" transform="translate(135.591797 0)"/>
       <use xlink:href="#DejaVuSans-20" transform="translate(197.115234 0)"/>
       <use xlink:href="#DejaVuSans-61" transform="translate(228.902344 0)"/>
       <use xlink:href="#DejaVuSans-6d" transform="translate(290.181641 0)"/>
       <use xlink:href="#DejaVuSans-69" transform="translate(387.59375 0)"/>
       <use xlink:href="#DejaVuSans-6e" transform="translate(415.376953 0)"/>
       <use xlink:href="#DejaVuSans-6f" transform="translate(478.755859 0)"/>
       <use xlink:href="#DejaVuSans-20" transform="translate(539.9375 0)"/>
       <use xlink:href="#DejaVuSans-61" transform="translate(571.724609 0)"/>
       <use xlink:href="#DejaVuSans-63" transform="translate(633.003906 0)"/>
       <use xlink:href="#DejaVuSans-69" transform="translate(687.984375 0)"/>
       <use xlink:href="#DejaVuSans-64" transform="translate(715.767578 0)"/>
      </g>
      <!-- n=75 -->
      <g transform="translate(203.063049 346.495681) rotate(-52) scale(0.068 -0.068)">
       <defs>
        <path id="DejaVuSans-35" d="M 691 4666 
L 3169 4666 
L 3169 4134 
L 1269 4134 
L 1269 2991 
Q 1406 3038 1543 3061 
Q 1681 3084 1819 3084 
Q 2600 3084 3056 2656 
Q 3513 2228 3513 1497 
Q 3513 744 3044 326 
Q 2575 -91 1722 -91 
Q 1428 -91 1123 -41 
Q 819 9 494 109 
L 494 744 
Q 775 591 1075 516 
Q 1375 441 1709 441 
Q 2250 441 2565 725 
Q 2881 1009 2881 1497 
Q 2881 1984 2565 2268 
Q 2250 2553 1709 2553 
Q 1456 2553 1204 2497 
Q 953 2441 691 2322 
L 691 4666 
z
" transform="scale(0.015625)"/>
       </defs>
       <use xlink:href="#DejaVuSans-6e"/>
       <use xlink:href="#DejaVuSans-3d" transform="translate(63.378906 0)"/>
       <use xlink:href="#DejaVuSans-37" transform="translate(147.167969 0)"/>
       <use xlink:href="#DejaVuSans-35" transform="translate(210.791016 0)"/>
      </g>
     </g>
    </g>
    <g id="xtick_6">
     <g id="line2d_6">
      <g>
       <use xlink:href="#m44aa3f2a10" x="248.414097" y="316.921813" style="stroke: #000000; stroke-width: 0.8"/>
      </g>
     </g>
     <g id="text_6">
      <!-- mono/oligosacch. -->
      <g transform="translate(204.593609 374.084147) rotate(-52) scale(0.068 -0.068)">
       <defs>
        <path id="DejaVuSans-2f" d="M 1625 4666 
L 2156 4666 
L 531 -594 
L 0 -594 
L 1625 4666 
z
" transform="scale(0.015625)"/>
        <path id="DejaVuSans-73" d="M 2834 3397 
L 2834 2853 
Q 2591 2978 2328 3040 
Q 2066 3103 1784 3103 
Q 1356 3103 1142 2972 
Q 928 2841 928 2578 
Q 928 2378 1081 2264 
Q 1234 2150 1697 2047 
L 1894 2003 
Q 2506 1872 2764 1633 
Q 3022 1394 3022 966 
Q 3022 478 2636 193 
Q 2250 -91 1575 -91 
Q 1294 -91 989 -36 
Q 684 19 347 128 
L 347 722 
Q 666 556 975 473 
Q 1284 391 1588 391 
Q 1994 391 2212 530 
Q 2431 669 2431 922 
Q 2431 1156 2273 1281 
Q 2116 1406 1581 1522 
L 1381 1569 
Q 847 1681 609 1914 
Q 372 2147 372 2553 
Q 372 3047 722 3315 
Q 1072 3584 1716 3584 
Q 2034 3584 2315 3537 
Q 2597 3491 2834 3397 
z
" transform="scale(0.015625)"/>
        <path id="DejaVuSans-2e" d="M 684 794 
L 1344 794 
L 1344 0 
L 684 0 
L 684 794 
z
" transform="scale(0.015625)"/>
       </defs>
       <use xlink:href="#DejaVuSans-6d"/>
       <use xlink:href="#DejaVuSans-6f" transform="translate(97.412109 0)"/>
       <use xlink:href="#DejaVuSans-6e" transform="translate(158.59375 0)"/>
       <use xlink:href="#DejaVuSans-6f" transform="translate(221.972656 0)"/>
       <use xlink:href="#DejaVuSans-2f" transform="translate(283.154297 0)"/>
       <use xlink:href="#DejaVuSans-6f" transform="translate(316.845703 0)"/>
       <use xlink:href="#DejaVuSans-6c" transform="translate(378.027344 0)"/>
       <use xlink:href="#DejaVuSans-69" transform="translate(405.810547 0)"/>
       <use xlink:href="#DejaVuSans-67" transform="translate(433.59375 0)"/>
       <use xlink:href="#DejaVuSans-6f" transform="translate(497.070312 0)"/>
       <use xlink:href="#DejaVuSans-73" transform="translate(558.251953 0)"/>
       <use xlink:href="#DejaVuSans-61" transform="translate(610.351562 0)"/>
       <use xlink:href="#DejaVuSans-63" transform="translate(671.630859 0)"/>
       <use xlink:href="#DejaVuSans-63" transform="translate(726.611328 0)"/>
       <use xlink:href="#DejaVuSans-68" transform="translate(781.591797 0)"/>
       <use xlink:href="#DejaVuSans-2e" transform="translate(844.970703 0)"/>
      </g>
      <!-- n=43 -->
      <g transform="translate(235.811036 346.495681) rotate(-52) scale(0.068 -0.068)">
       <defs>
        <path id="DejaVuSans-34" d="M 2419 4116 
L 825 1625 
L 2419 1625 
L 2419 4116 
z
M 2253 4666 
L 3047 4666 
L 3047 1625 
L 3713 1625 
L 3713 1100 
L 3047 1100 
L 3047 0 
L 2419 0 
L 2419 1100 
L 313 1100 
L 313 1709 
L 2253 4666 
z
" transform="scale(0.015625)"/>
       </defs>
       <use xlink:href="#DejaVuSans-6e"/>
       <use xlink:href="#DejaVuSans-3d" transform="translate(63.378906 0)"/>
       <use xlink:href="#DejaVuSans-34" transform="translate(147.167969 0)"/>
       <use xlink:href="#DejaVuSans-33" transform="translate(210.791016 0)"/>
      </g>
     </g>
    </g>
    <g id="xtick_7">
     <g id="line2d_7">
      <g>
       <use xlink:href="#m44aa3f2a10" x="281.162083" y="316.921813" style="stroke: #000000; stroke-width: 0.8"/>
      </g>
     </g>
     <g id="text_7">
      <!-- nucleic polymer -->
      <g transform="translate(240.669207 369.824998) rotate(-52) scale(0.068 -0.068)">
       <defs>
        <path id="DejaVuSans-75" d="M 544 1381 
L 544 3500 
L 1119 3500 
L 1119 1403 
Q 1119 906 1312 657 
Q 1506 409 1894 409 
Q 2359 409 2629 706 
Q 2900 1003 2900 1516 
L 2900 3500 
L 3475 3500 
L 3475 0 
L 2900 0 
L 2900 538 
Q 2691 219 2414 64 
Q 2138 -91 1772 -91 
Q 1169 -91 856 284 
Q 544 659 544 1381 
z
M 1991 3584 
L 1991 3584 
z
" transform="scale(0.015625)"/>
       </defs>
       <use xlink:href="#DejaVuSans-6e"/>
       <use xlink:href="#DejaVuSans-75" transform="translate(63.378906 0)"/>
       <use xlink:href="#DejaVuSans-63" transform="translate(126.757812 0)"/>
       <use xlink:href="#DejaVuSans-6c" transform="translate(181.738281 0)"/>
       <use xlink:href="#DejaVuSans-65" transform="translate(209.521484 0)"/>
       <use xlink:href="#DejaVuSans-69" transform="translate(271.044922 0)"/>
       <use xlink:href="#DejaVuSans-63" transform="translate(298.828125 0)"/>
       <use xlink:href="#DejaVuSans-20" transform="translate(353.808594 0)"/>
       <use xlink:href="#DejaVuSans-70" transform="translate(385.595703 0)"/>
       <use xlink:href="#DejaVuSans-6f" transform="translate(449.072266 0)"/>
       <use xlink:href="#DejaVuSans-6c" transform="translate(510.253906 0)"/>
       <use xlink:href="#DejaVuSans-79" transform="translate(538.037109 0)"/>
       <use xlink:href="#DejaVuSans-6d" transform="translate(597.216797 0)"/>
       <use xlink:href="#DejaVuSans-65" transform="translate(694.628906 0)"/>
       <use xlink:href="#DejaVuSans-72" transform="translate(756.152344 0)"/>
      </g>
      <!-- n=3 -->
      <g transform="translate(271.222681 343.086353) rotate(-52) scale(0.068 -0.068)">
       <use xlink:href="#DejaVuSans-6e"/>
       <use xlink:href="#DejaVuSans-3d" transform="translate(63.378906 0)"/>
       <use xlink:href="#DejaVuSans-33" transform="translate(147.167969 0)"/>
      </g>
     </g>
    </g>
    <g id="xtick_8">
     <g id="line2d_8">
      <g>
       <use xlink:href="#m44aa3f2a10" x="313.910069" y="316.921813" style="stroke: #000000; stroke-width: 0.8"/>
      </g>
     </g>
     <g id="text_8">
      <!-- peptide protein -->
      <g transform="translate(274.65548 368.240062) rotate(-52) scale(0.068 -0.068)">
       <use xlink:href="#DejaVuSans-70"/>
       <use xlink:href="#DejaVuSans-65" transform="translate(63.476562 0)"/>
       <use xlink:href="#DejaVuSans-70" transform="translate(125 0)"/>
       <use xlink:href="#DejaVuSans-74" transform="translate(188.476562 0)"/>
       <use xlink:href="#DejaVuSans-69" transform="translate(227.685547 0)"/>
       <use xlink:href="#DejaVuSans-64" transform="translate(255.46875 0)"/>
       <use xlink:href="#DejaVuSans-65" transform="translate(318.945312 0)"/>
       <use xlink:href="#DejaVuSans-20" transform="translate(380.46875 0)"/>
       <use xlink:href="#DejaVuSans-70" transform="translate(412.255859 0)"/>
       <use xlink:href="#DejaVuSans-72" transform="translate(475.732422 0)"/>
       <use xlink:href="#DejaVuSans-6f" transform="translate(514.595703 0)"/>
       <use xlink:href="#DejaVuSans-74" transform="translate(575.777344 0)"/>
       <use xlink:href="#DejaVuSans-65" transform="translate(614.986328 0)"/>
       <use xlink:href="#DejaVuSans-69" transform="translate(676.509766 0)"/>
       <use xlink:href="#DejaVuSans-6e" transform="translate(704.292969 0)"/>
      </g>
      <!-- n=80 -->
      <g transform="translate(301.307008 346.495681) rotate(-52) scale(0.068 -0.068)">
       <defs>
        <path id="DejaVuSans-38" d="M 2034 2216 
Q 1584 2216 1326 1975 
Q 1069 1734 1069 1313 
Q 1069 891 1326 650 
Q 1584 409 2034 409 
Q 2484 409 2743 651 
Q 3003 894 3003 1313 
Q 3003 1734 2745 1975 
Q 2488 2216 2034 2216 
z
M 1403 2484 
Q 997 2584 770 2862 
Q 544 3141 544 3541 
Q 544 4100 942 4425 
Q 1341 4750 2034 4750 
Q 2731 4750 3128 4425 
Q 3525 4100 3525 3541 
Q 3525 3141 3298 2862 
Q 3072 2584 2669 2484 
Q 3125 2378 3379 2068 
Q 3634 1759 3634 1313 
Q 3634 634 3220 271 
Q 2806 -91 2034 -91 
Q 1263 -91 848 271 
Q 434 634 434 1313 
Q 434 1759 690 2068 
Q 947 2378 1403 2484 
z
M 1172 3481 
Q 1172 3119 1398 2916 
Q 1625 2713 2034 2713 
Q 2441 2713 2670 2916 
Q 2900 3119 2900 3481 
Q 2900 3844 2670 4047 
Q 2441 4250 2034 4250 
Q 1625 4250 1398 4047 
Q 1172 3844 1172 3481 
z
" transform="scale(0.015625)"/>
       </defs>
       <use xlink:href="#DejaVuSans-6e"/>
       <use xlink:href="#DejaVuSans-3d" transform="translate(63.378906 0)"/>
       <use xlink:href="#DejaVuSans-38" transform="translate(147.167969 0)"/>
       <use xlink:href="#DejaVuSans-30" transform="translate(210.791016 0)"/>
      </g>
     </g>
    </g>
    <g id="xtick_9">
     <g id="line2d_9">
      <g>
       <use xlink:href="#m44aa3f2a10" x="346.658056" y="316.921813" style="stroke: #000000; stroke-width: 0.8"/>
      </g>
     </g>
     <g id="text_9">
      <!-- phosphate metabolite -->
      <g transform="translate(293.44215 386.109733) rotate(-52) scale(0.068 -0.068)">
       <use xlink:href="#DejaVuSans-70"/>
       <use xlink:href="#DejaVuSans-68" transform="translate(63.476562 0)"/>
       <use xlink:href="#DejaVuSans-6f" transform="translate(126.855469 0)"/>
       <use xlink:href="#DejaVuSans-73" transform="translate(188.037109 0)"/>
       <use xlink:href="#DejaVuSans-70" transform="translate(240.136719 0)"/>
       <use xlink:href="#DejaVuSans-68" transform="translate(303.613281 0)"/>
       <use xlink:href="#DejaVuSans-61" transform="translate(366.992188 0)"/>
       <use xlink:href="#DejaVuSans-74" transform="translate(428.271484 0)"/>
       <use xlink:href="#DejaVuSans-65" transform="translate(467.480469 0)"/>
       <use xlink:href="#DejaVuSans-20" transform="translate(529.003906 0)"/>
       <use xlink:href="#DejaVuSans-6d" transform="translate(560.791016 0)"/>
       <use xlink:href="#DejaVuSans-65" transform="translate(658.203125 0)"/>
       <use xlink:href="#DejaVuSans-74" transform="translate(719.726562 0)"/>
       <use xlink:href="#DejaVuSans-61" transform="translate(758.935547 0)"/>
       <use xlink:href="#DejaVuSans-62" transform="translate(820.214844 0)"/>
       <use xlink:href="#DejaVuSans-6f" transform="translate(883.691406 0)"/>
       <use xlink:href="#DejaVuSans-6c" transform="translate(944.873047 0)"/>
       <use xlink:href="#DejaVuSans-69" transform="translate(972.65625 0)"/>
       <use xlink:href="#DejaVuSans-74" transform="translate(1000.439453 0)"/>
       <use xlink:href="#DejaVuSans-65" transform="translate(1039.648438 0)"/>
      </g>
      <!-- n=11 -->
      <g transform="translate(334.054994 346.495681) rotate(-52) scale(0.068 -0.068)">
       <use xlink:href="#DejaVuSans-6e"/>
       <use xlink:href="#DejaVuSans-3d" transform="translate(63.378906 0)"/>
       <use xlink:href="#DejaVuSans-31" transform="translate(147.167969 0)"/>
       <use xlink:href="#DejaVuSans-31" transform="translate(210.791016 0)"/>
      </g>
     </g>
    </g>
    <g id="xtick_10">
     <g id="line2d_10">
      <g>
       <use xlink:href="#m44aa3f2a10" x="379.406042" y="316.921813" style="stroke: #000000; stroke-width: 0.8"/>
      </g>
     </g>
     <g id="text_10">
      <!-- phospholipid -->
      <g transform="translate(345.560539 361.316748) rotate(-52) scale(0.068 -0.068)">
       <use xlink:href="#DejaVuSans-70"/>
       <use xlink:href="#DejaVuSans-68" transform="translate(63.476562 0)"/>
       <use xlink:href="#DejaVuSans-6f" transform="translate(126.855469 0)"/>
       <use xlink:href="#DejaVuSans-73" transform="translate(188.037109 0)"/>
       <use xlink:href="#DejaVuSans-70" transform="translate(240.136719 0)"/>
       <use xlink:href="#DejaVuSans-68" transform="translate(303.613281 0)"/>
       <use xlink:href="#DejaVuSans-6f" transform="translate(366.992188 0)"/>
       <use xlink:href="#DejaVuSans-6c" transform="translate(428.173828 0)"/>
       <use xlink:href="#DejaVuSans-69" transform="translate(455.957031 0)"/>
       <use xlink:href="#DejaVuSans-70" transform="translate(483.740234 0)"/>
       <use xlink:href="#DejaVuSans-69" transform="translate(547.216797 0)"/>
       <use xlink:href="#DejaVuSans-64" transform="translate(575 0)"/>
      </g>
      <!-- n=8 -->
      <g transform="translate(369.46664 343.086353) rotate(-52) scale(0.068 -0.068)">
       <use xlink:href="#DejaVuSans-6e"/>
       <use xlink:href="#DejaVuSans-3d" transform="translate(63.378906 0)"/>
       <use xlink:href="#DejaVuSans-38" transform="translate(147.167969 0)"/>
      </g>
     </g>
    </g>
    <g id="xtick_11">
     <g id="line2d_11">
      <g>
       <use xlink:href="#m44aa3f2a10" x="412.154028" y="316.921813" style="stroke: #000000; stroke-width: 0.8"/>
      </g>
     </g>
     <g id="text_11">
      <!-- polysaccharide -->
      <g transform="translate(373.49209 367.481504) rotate(-52) scale(0.068 -0.068)">
       <use xlink:href="#DejaVuSans-70"/>
       <use xlink:href="#DejaVuSans-6f" transform="translate(63.476562 0)"/>
       <use xlink:href="#DejaVuSans-6c" transform="translate(124.658203 0)"/>
       <use xlink:href="#DejaVuSans-79" transform="translate(152.441406 0)"/>
       <use xlink:href="#DejaVuSans-73" transform="translate(211.621094 0)"/>
       <use xlink:href="#DejaVuSans-61" transform="translate(263.720703 0)"/>
       <use xlink:href="#DejaVuSans-63" transform="translate(325 0)"/>
       <use xlink:href="#DejaVuSans-63" transform="translate(379.980469 0)"/>
       <use xlink:href="#DejaVuSans-68" transform="translate(434.960938 0)"/>
       <use xlink:href="#DejaVuSans-61" transform="translate(498.339844 0)"/>
       <use xlink:href="#DejaVuSans-72" transform="translate(559.619141 0)"/>
       <use xlink:href="#DejaVuSans-69" transform="translate(600.732422 0)"/>
       <use xlink:href="#DejaVuSans-64" transform="translate(628.515625 0)"/>
       <use xlink:href="#DejaVuSans-65" transform="translate(691.992188 0)"/>
      </g>
      <!-- n=10 -->
      <g transform="translate(399.550967 346.495681) rotate(-52) scale(0.068 -0.068)">
       <use xlink:href="#DejaVuSans-6e"/>
       <use xlink:href="#DejaVuSans-3d" transform="translate(63.378906 0)"/>
       <use xlink:href="#DejaVuSans-31" transform="translate(147.167969 0)"/>
       <use xlink:href="#DejaVuSans-30" transform="translate(210.791016 0)"/>
      </g>
     </g>
    </g>
    <g id="xtick_12">
     <g id="line2d_12">
      <g>
       <use xlink:href="#m44aa3f2a10" x="444.902014" y="316.921813" style="stroke: #000000; stroke-width: 0.8"/>
      </g>
     </g>
     <g id="text_12">
      <!-- purine -->
      <g transform="translate(424.363034 344.285176) rotate(-52) scale(0.068 -0.068)">
       <use xlink:href="#DejaVuSans-70"/>
       <use xlink:href="#DejaVuSans-75" transform="translate(63.476562 0)"/>
       <use xlink:href="#DejaVuSans-72" transform="translate(126.855469 0)"/>
       <use xlink:href="#DejaVuSans-69" transform="translate(167.96875 0)"/>
       <use xlink:href="#DejaVuSans-6e" transform="translate(195.751953 0)"/>
       <use xlink:href="#DejaVuSans-65" transform="translate(259.130859 0)"/>
      </g>
      <!-- n=17 -->
      <g transform="translate(432.298953 346.495681) rotate(-52) scale(0.068 -0.068)">
       <use xlink:href="#DejaVuSans-6e"/>
       <use xlink:href="#DejaVuSans-3d" transform="translate(63.378906 0)"/>
       <use xlink:href="#DejaVuSans-31" transform="translate(147.167969 0)"/>
       <use xlink:href="#DejaVuSans-37" transform="translate(210.791016 0)"/>
      </g>
     </g>
    </g>
    <g id="xtick_13">
     <g id="line2d_13">
      <g>
       <use xlink:href="#m44aa3f2a10" x="477.65" y="316.921813" style="stroke: #000000; stroke-width: 0.8"/>
      </g>
     </g>
     <g id="text_13">
      <!-- pyrimidine -->
      <g transform="translate(448.224524 355.659372) rotate(-52) scale(0.068 -0.068)">
       <use xlink:href="#DejaVuSans-70"/>
       <use xlink:href="#DejaVuSans-79" transform="translate(63.476562 0)"/>
       <use xlink:href="#DejaVuSans-72" transform="translate(122.65625 0)"/>
       <use xlink:href="#DejaVuSans-69" transform="translate(163.769531 0)"/>
       <use xlink:href="#DejaVuSans-6d" transform="translate(191.552734 0)"/>
       <use xlink:href="#DejaVuSans-69" transform="translate(288.964844 0)"/>
       <use xlink:href="#DejaVuSans-64" transform="translate(316.748047 0)"/>
       <use xlink:href="#DejaVuSans-69" transform="translate(380.224609 0)"/>
       <use xlink:href="#DejaVuSans-6e" transform="translate(408.007812 0)"/>
       <use xlink:href="#DejaVuSans-65" transform="translate(471.386719 0)"/>
      </g>
      <!-- n=9 -->
      <g transform="translate(467.710598 343.086353) rotate(-52) scale(0.068 -0.068)">
       <defs>
        <path id="DejaVuSans-39" d="M 703 97 
L 703 672 
Q 941 559 1184 500 
Q 1428 441 1663 441 
Q 2288 441 2617 861 
Q 2947 1281 2994 2138 
Q 2813 1869 2534 1725 
Q 2256 1581 1919 1581 
Q 1219 1581 811 2004 
Q 403 2428 403 3163 
Q 403 3881 828 4315 
Q 1253 4750 1959 4750 
Q 2769 4750 3195 4129 
Q 3622 3509 3622 2328 
Q 3622 1225 3098 567 
Q 2575 -91 1691 -91 
Q 1453 -91 1209 -44 
Q 966 3 703 97 
z
M 1959 2075 
Q 2384 2075 2632 2365 
Q 2881 2656 2881 3163 
Q 2881 3666 2632 3958 
Q 2384 4250 1959 4250 
Q 1534 4250 1286 3958 
Q 1038 3666 1038 3163 
Q 1038 2656 1286 2365 
Q 1534 2075 1959 2075 
z
" transform="scale(0.015625)"/>
       </defs>
       <use xlink:href="#DejaVuSans-6e"/>
       <use xlink:href="#DejaVuSans-3d" transform="translate(63.378906 0)"/>
       <use xlink:href="#DejaVuSans-39" transform="translate(147.167969 0)"/>
      </g>
     </g>
    </g>
    <g id="xtick_14">
     <g id="line2d_14">
      <g>
       <use xlink:href="#m44aa3f2a10" x="510.397987" y="316.921813" style="stroke: #000000; stroke-width: 0.8"/>
      </g>
     </g>
     <g id="text_14">
      <!-- small N -->
      <g transform="translate(487.670253 347.086653) rotate(-52) scale(0.068 -0.068)">
       <defs>
        <path id="DejaVuSans-4e" d="M 628 4666 
L 1478 4666 
L 3547 763 
L 3547 4666 
L 4159 4666 
L 4159 0 
L 3309 0 
L 1241 3903 
L 1241 0 
L 628 0 
L 628 4666 
z
" transform="scale(0.015625)"/>
       </defs>
       <use xlink:href="#DejaVuSans-73"/>
       <use xlink:href="#DejaVuSans-6d" transform="translate(52.099609 0)"/>
       <use xlink:href="#DejaVuSans-61" transform="translate(149.511719 0)"/>
       <use xlink:href="#DejaVuSans-6c" transform="translate(210.791016 0)"/>
       <use xlink:href="#DejaVuSans-6c" transform="translate(238.574219 0)"/>
       <use xlink:href="#DejaVuSans-20" transform="translate(266.357422 0)"/>
       <use xlink:href="#DejaVuSans-4e" transform="translate(298.144531 0)"/>
      </g>
      <!-- n=7 -->
      <g transform="translate(500.458585 343.086353) rotate(-52) scale(0.068 -0.068)">
       <use xlink:href="#DejaVuSans-6e"/>
       <use xlink:href="#DejaVuSans-3d" transform="translate(63.378906 0)"/>
       <use xlink:href="#DejaVuSans-37" transform="translate(147.167969 0)"/>
      </g>
     </g>
    </g>
    <g id="xtick_15">
     <g id="line2d_15">
      <g>
       <use xlink:href="#m44aa3f2a10" x="543.145973" y="316.921813" style="stroke: #000000; stroke-width: 0.8"/>
      </g>
     </g>
     <g id="text_15">
      <!-- sterol steroid -->
      <g transform="translate(508.54363 362.285459) rotate(-52) scale(0.068 -0.068)">
       <use xlink:href="#DejaVuSans-73"/>
       <use xlink:href="#DejaVuSans-74" transform="translate(52.099609 0)"/>
       <use xlink:href="#DejaVuSans-65" transform="translate(91.308594 0)"/>
       <use xlink:href="#DejaVuSans-72" transform="translate(152.832031 0)"/>
       <use xlink:href="#DejaVuSans-6f" transform="translate(191.695312 0)"/>
       <use xlink:href="#DejaVuSans-6c" transform="translate(252.876953 0)"/>
       <use xlink:href="#DejaVuSans-20" transform="translate(280.660156 0)"/>
       <use xlink:href="#DejaVuSans-73" transform="translate(312.447266 0)"/>
       <use xlink:href="#DejaVuSans-74" transform="translate(364.546875 0)"/>
       <use xlink:href="#DejaVuSans-65" transform="translate(403.755859 0)"/>
       <use xlink:href="#DejaVuSans-72" transform="translate(465.279297 0)"/>
       <use xlink:href="#DejaVuSans-6f" transform="translate(504.142578 0)"/>
       <use xlink:href="#DejaVuSans-69" transform="translate(565.324219 0)"/>
       <use xlink:href="#DejaVuSans-64" transform="translate(593.107422 0)"/>
      </g>
      <!-- n=13 -->
      <g transform="translate(530.542911 346.495681) rotate(-52) scale(0.068 -0.068)">
       <use xlink:href="#DejaVuSans-6e"/>
       <use xlink:href="#DejaVuSans-3d" transform="translate(63.378906 0)"/>
       <use xlink:href="#DejaVuSans-31" transform="translate(147.167969 0)"/>
       <use xlink:href="#DejaVuSans-33" transform="translate(210.791016 0)"/>
      </g>
     </g>
    </g>
    <g id="xtick_16">
     <g id="line2d_16">
      <g>
       <use xlink:href="#m44aa3f2a10" x="575.893959" y="316.921813" style="stroke: #000000; stroke-width: 0.8"/>
      </g>
     </g>
     <g id="text_16">
      <!-- sulfur/thiol -->
      <g transform="translate(546.341579 355.821801) rotate(-52) scale(0.068 -0.068)">
       <use xlink:href="#DejaVuSans-73"/>
       <use xlink:href="#DejaVuSans-75" transform="translate(52.099609 0)"/>
       <use xlink:href="#DejaVuSans-6c" transform="translate(115.478516 0)"/>
       <use xlink:href="#DejaVuSans-66" transform="translate(143.261719 0)"/>
       <use xlink:href="#DejaVuSans-75" transform="translate(178.466797 0)"/>
       <use xlink:href="#DejaVuSans-72" transform="translate(241.845703 0)"/>
       <use xlink:href="#DejaVuSans-2f" transform="translate(282.958984 0)"/>
       <use xlink:href="#DejaVuSans-74" transform="translate(316.650391 0)"/>
       <use xlink:href="#DejaVuSans-68" transform="translate(355.859375 0)"/>
       <use xlink:href="#DejaVuSans-69" transform="translate(419.238281 0)"/>
       <use xlink:href="#DejaVuSans-6f" transform="translate(447.021484 0)"/>
       <use xlink:href="#DejaVuSans-6c" transform="translate(508.203125 0)"/>
      </g>
      <!-- n=16 -->
      <g transform="translate(563.290898 346.495681) rotate(-52) scale(0.068 -0.068)">
       <defs>
        <path id="DejaVuSans-36" d="M 2113 2584 
Q 1688 2584 1439 2293 
Q 1191 2003 1191 1497 
Q 1191 994 1439 701 
Q 1688 409 2113 409 
Q 2538 409 2786 701 
Q 3034 994 3034 1497 
Q 3034 2003 2786 2293 
Q 2538 2584 2113 2584 
z
M 3366 4563 
L 3366 3988 
Q 3128 4100 2886 4159 
Q 2644 4219 2406 4219 
Q 1781 4219 1451 3797 
Q 1122 3375 1075 2522 
Q 1259 2794 1537 2939 
Q 1816 3084 2150 3084 
Q 2853 3084 3261 2657 
Q 3669 2231 3669 1497 
Q 3669 778 3244 343 
Q 2819 -91 2113 -91 
Q 1303 -91 875 529 
Q 447 1150 447 2328 
Q 447 3434 972 4092 
Q 1497 4750 2381 4750 
Q 2619 4750 2861 4703 
Q 3103 4656 3366 4563 
z
" transform="scale(0.015625)"/>
       </defs>
       <use xlink:href="#DejaVuSans-6e"/>
       <use xlink:href="#DejaVuSans-3d" transform="translate(63.378906 0)"/>
       <use xlink:href="#DejaVuSans-31" transform="translate(147.167969 0)"/>
       <use xlink:href="#DejaVuSans-36" transform="translate(210.791016 0)"/>
      </g>
     </g>
    </g>
   </g>
   <g id="matplotlib.axis_2">
    <g id="ytick_1">
     <g id="line2d_17">
      <defs>
       <path id="mba7ed95f67" d="M 0 0 
L -3.5 0 
" style="stroke: #000000; stroke-width: 0.8"/>
      </defs>
      <g>
       <use xlink:href="#mba7ed95f67" x="45.704063" y="316.921813" style="stroke: #000000; stroke-width: 0.8"/>
      </g>
     </g>
     <g id="text_17">
      <!-- 0.0 -->
      <g transform="translate(25.186406 320.151148) scale(0.085 -0.085)">
       <use xlink:href="#DejaVuSans-30"/>
       <use xlink:href="#DejaVuSans-2e" transform="translate(63.623047 0)"/>
       <use xlink:href="#DejaVuSans-30" transform="translate(95.410156 0)"/>
      </g>
     </g>
    </g>
    <g id="ytick_2">
     <g id="line2d_18">
      <g>
       <use xlink:href="#mba7ed95f67" x="45.704063" y="264.121813" style="stroke: #000000; stroke-width: 0.8"/>
      </g>
     </g>
     <g id="text_18">
      <!-- 0.2 -->
      <g transform="translate(25.186406 267.351148) scale(0.085 -0.085)">
       <use xlink:href="#DejaVuSans-30"/>
       <use xlink:href="#DejaVuSans-2e" transform="translate(63.623047 0)"/>
       <use xlink:href="#DejaVuSans-32" transform="translate(95.410156 0)"/>
      </g>
     </g>
    </g>
    <g id="ytick_3">
     <g id="line2d_19">
      <g>
       <use xlink:href="#mba7ed95f67" x="45.704063" y="211.321813" style="stroke: #000000; stroke-width: 0.8"/>
      </g>
     </g>
     <g id="text_19">
      <!-- 0.4 -->
      <g transform="translate(25.186406 214.551148) scale(0.085 -0.085)">
       <use xlink:href="#DejaVuSans-30"/>
       <use xlink:href="#DejaVuSans-2e" transform="translate(63.623047 0)"/>
       <use xlink:href="#DejaVuSans-34" transform="translate(95.410156 0)"/>
      </g>
     </g>
    </g>
    <g id="ytick_4">
     <g id="line2d_20">
      <g>
       <use xlink:href="#mba7ed95f67" x="45.704063" y="158.521813" style="stroke: #000000; stroke-width: 0.8"/>
      </g>
     </g>
     <g id="text_20">
      <!-- 0.6 -->
      <g transform="translate(25.186406 161.751148) scale(0.085 -0.085)">
       <use xlink:href="#DejaVuSans-30"/>
       <use xlink:href="#DejaVuSans-2e" transform="translate(63.623047 0)"/>
       <use xlink:href="#DejaVuSans-36" transform="translate(95.410156 0)"/>
      </g>
     </g>
    </g>
    <g id="ytick_5">
     <g id="line2d_21">
      <g>
       <use xlink:href="#mba7ed95f67" x="45.704063" y="105.721813" style="stroke: #000000; stroke-width: 0.8"/>
      </g>
     </g>
     <g id="text_21">
      <!-- 0.8 -->
      <g transform="translate(25.186406 108.951148) scale(0.085 -0.085)">
       <use xlink:href="#DejaVuSans-30"/>
       <use xlink:href="#DejaVuSans-2e" transform="translate(63.623047 0)"/>
       <use xlink:href="#DejaVuSans-38" transform="translate(95.410156 0)"/>
      </g>
     </g>
    </g>
    <g id="ytick_6">
     <g id="line2d_22">
      <g>
       <use xlink:href="#mba7ed95f67" x="45.704063" y="52.921813" style="stroke: #000000; stroke-width: 0.8"/>
      </g>
     </g>
     <g id="text_22">
      <!-- 1.0 -->
      <g transform="translate(25.186406 56.151148) scale(0.085 -0.085)">
       <use xlink:href="#DejaVuSans-31"/>
       <use xlink:href="#DejaVuSans-2e" transform="translate(63.623047 0)"/>
       <use xlink:href="#DejaVuSans-30" transform="translate(95.410156 0)"/>
      </g>
     </g>
    </g>
    <g id="text_23">
     <!-- score -->
     <g transform="translate(19.418672 189.739703) rotate(-90) scale(0.085 -0.085)">
      <use xlink:href="#DejaVuSans-73"/>
      <use xlink:href="#DejaVuSans-63" transform="translate(52.099609 0)"/>
      <use xlink:href="#DejaVuSans-6f" transform="translate(107.080078 0)"/>
      <use xlink:href="#DejaVuSans-72" transform="translate(168.261719 0)"/>
      <use xlink:href="#DejaVuSans-65" transform="translate(207.125 0)"/>
     </g>
    </g>
   </g>
   <g id="line2d_23">
    <path d="M 45.704063 107.647701 
L 614.864063 107.647701 
" clip-path="url(#p691f27472b)" style="fill: none; stroke-dasharray: 4.07,1.76; stroke-dashoffset: 0; stroke: #b91c1c; stroke-width: 1.1"/>
   </g>
   <g id="patch_51">
    <path d="M 45.704063 316.921813 
L 45.704063 39.721813 
" style="fill: none; stroke: #000000; stroke-width: 0.8; stroke-linejoin: miter; stroke-linecap: square"/>
   </g>
   <g id="patch_52">
    <path d="M 614.864063 316.921813 
L 614.864063 39.721813 
" style="fill: none; stroke: #000000; stroke-width: 0.8; stroke-linejoin: miter; stroke-linecap: square"/>
   </g>
   <g id="patch_53">
    <path d="M 45.704062 316.921813 
L 614.864063 316.921813 
" style="fill: none; stroke: #000000; stroke-width: 0.8; stroke-linejoin: miter; stroke-linecap: square"/>
   </g>
   <g id="patch_54">
    <path d="M 45.704062 39.721813 
L 614.864063 39.721813 
" style="fill: none; stroke: #000000; stroke-width: 0.8; stroke-linejoin: miter; stroke-linecap: square"/>
   </g>
   <g id="text_24">
    <!-- Figure 7 · Per-class precision, recall and F1 -->
    <g style="fill: #1a1a1a" transform="translate(45.704063 21.318281) scale(0.11 -0.11)">
     <defs>
      <path id="DejaVuSans-Bold-46" d="M 588 4666 
L 3834 4666 
L 3834 3756 
L 1791 3756 
L 1791 2888 
L 3713 2888 
L 3713 1978 
L 1791 1978 
L 1791 0 
L 588 0 
L 588 4666 
z
" transform="scale(0.015625)"/>
      <path id="DejaVuSans-Bold-69" d="M 538 3500 
L 1656 3500 
L 1656 0 
L 538 0 
L 538 3500 
z
M 538 4863 
L 1656 4863 
L 1656 3950 
L 538 3950 
L 538 4863 
z
" transform="scale(0.015625)"/>
      <path id="DejaVuSans-Bold-67" d="M 2919 594 
Q 2688 288 2409 144 
Q 2131 0 1766 0 
Q 1125 0 706 504 
Q 288 1009 288 1791 
Q 288 2575 706 3076 
Q 1125 3578 1766 3578 
Q 2131 3578 2409 3434 
Q 2688 3291 2919 2981 
L 2919 3500 
L 4044 3500 
L 4044 353 
Q 4044 -491 3511 -936 
Q 2978 -1381 1966 -1381 
Q 1638 -1381 1331 -1331 
Q 1025 -1281 716 -1178 
L 716 -306 
Q 1009 -475 1290 -558 
Q 1572 -641 1856 -641 
Q 2406 -641 2662 -400 
Q 2919 -159 2919 353 
L 2919 594 
z
M 2181 2772 
Q 1834 2772 1640 2515 
Q 1447 2259 1447 1791 
Q 1447 1309 1634 1061 
Q 1822 813 2181 813 
Q 2531 813 2725 1069 
Q 2919 1325 2919 1791 
Q 2919 2259 2725 2515 
Q 2531 2772 2181 2772 
z
" transform="scale(0.015625)"/>
      <path id="DejaVuSans-Bold-75" d="M 500 1363 
L 500 3500 
L 1625 3500 
L 1625 3150 
Q 1625 2866 1622 2436 
Q 1619 2006 1619 1863 
Q 1619 1441 1641 1255 
Q 1663 1069 1716 984 
Q 1784 875 1895 815 
Q 2006 756 2150 756 
Q 2500 756 2700 1025 
Q 2900 1294 2900 1772 
L 2900 3500 
L 4019 3500 
L 4019 0 
L 2900 0 
L 2900 506 
Q 2647 200 2364 54 
Q 2081 -91 1741 -91 
Q 1134 -91 817 281 
Q 500 653 500 1363 
z
" transform="scale(0.015625)"/>
      <path id="DejaVuSans-Bold-72" d="M 3138 2547 
Q 2991 2616 2845 2648 
Q 2700 2681 2553 2681 
Q 2122 2681 1889 2404 
Q 1656 2128 1656 1613 
L 1656 0 
L 538 0 
L 538 3500 
L 1656 3500 
L 1656 2925 
Q 1872 3269 2151 3426 
Q 2431 3584 2822 3584 
Q 2878 3584 2943 3579 
Q 3009 3575 3134 3559 
L 3138 2547 
z
" transform="scale(0.015625)"/>
      <path id="DejaVuSans-Bold-65" d="M 4031 1759 
L 4031 1441 
L 1416 1441 
Q 1456 1047 1700 850 
Q 1944 653 2381 653 
Q 2734 653 3104 758 
Q 3475 863 3866 1075 
L 3866 213 
Q 3469 63 3072 -14 
Q 2675 -91 2278 -91 
Q 1328 -91 801 392 
Q 275 875 275 1747 
Q 275 2603 792 3093 
Q 1309 3584 2216 3584 
Q 3041 3584 3536 3087 
Q 4031 2591 4031 1759 
z
M 2881 2131 
Q 2881 2450 2695 2645 
Q 2509 2841 2209 2841 
Q 1884 2841 1681 2658 
Q 1478 2475 1428 2131 
L 2881 2131 
z
" transform="scale(0.015625)"/>
      <path id="DejaVuSans-Bold-20" transform="scale(0.015625)"/>
      <path id="DejaVuSans-Bold-37" d="M 428 4666 
L 3944 4666 
L 3944 3988 
L 2125 0 
L 953 0 
L 2675 3781 
L 428 3781 
L 428 4666 
z
" transform="scale(0.015625)"/>
      <path id="DejaVuSans-Bold-b7" d="M 653 2828 
L 1778 2828 
L 1778 1619 
L 653 1619 
L 653 2828 
z
" transform="scale(0.015625)"/>
      <path id="DejaVuSans-Bold-50" d="M 588 4666 
L 2584 4666 
Q 3475 4666 3951 4270 
Q 4428 3875 4428 3144 
Q 4428 2409 3951 2014 
Q 3475 1619 2584 1619 
L 1791 1619 
L 1791 0 
L 588 0 
L 588 4666 
z
M 1791 3794 
L 1791 2491 
L 2456 2491 
Q 2806 2491 2997 2661 
Q 3188 2831 3188 3144 
Q 3188 3456 2997 3625 
Q 2806 3794 2456 3794 
L 1791 3794 
z
" transform="scale(0.015625)"/>
      <path id="DejaVuSans-Bold-2d" d="M 347 2297 
L 2309 2297 
L 2309 1388 
L 347 1388 
L 347 2297 
z
" transform="scale(0.015625)"/>
      <path id="DejaVuSans-Bold-63" d="M 3366 3391 
L 3366 2478 
Q 3138 2634 2908 2709 
Q 2678 2784 2431 2784 
Q 1963 2784 1702 2511 
Q 1441 2238 1441 1747 
Q 1441 1256 1702 982 
Q 1963 709 2431 709 
Q 2694 709 2930 787 
Q 3166 866 3366 1019 
L 3366 103 
Q 3103 6 2833 -42 
Q 2563 -91 2291 -91 
Q 1344 -91 809 395 
Q 275 881 275 1747 
Q 275 2613 809 3098 
Q 1344 3584 2291 3584 
Q 2566 3584 2833 3536 
Q 3100 3488 3366 3391 
z
" transform="scale(0.015625)"/>
      <path id="DejaVuSans-Bold-6c" d="M 538 4863 
L 1656 4863 
L 1656 0 
L 538 0 
L 538 4863 
z
" transform="scale(0.015625)"/>
      <path id="DejaVuSans-Bold-61" d="M 2106 1575 
Q 1756 1575 1579 1456 
Q 1403 1338 1403 1106 
Q 1403 894 1545 773 
Q 1688 653 1941 653 
Q 2256 653 2472 879 
Q 2688 1106 2688 1447 
L 2688 1575 
L 2106 1575 
z
M 3816 1997 
L 3816 0 
L 2688 0 
L 2688 519 
Q 2463 200 2181 54 
Q 1900 -91 1497 -91 
Q 953 -91 614 226 
Q 275 544 275 1050 
Q 275 1666 698 1953 
Q 1122 2241 2028 2241 
L 2688 2241 
L 2688 2328 
Q 2688 2594 2478 2717 
Q 2269 2841 1825 2841 
Q 1466 2841 1156 2769 
Q 847 2697 581 2553 
L 581 3406 
Q 941 3494 1303 3539 
Q 1666 3584 2028 3584 
Q 2975 3584 3395 3211 
Q 3816 2838 3816 1997 
z
" transform="scale(0.015625)"/>
      <path id="DejaVuSans-Bold-73" d="M 3272 3391 
L 3272 2541 
Q 2913 2691 2578 2766 
Q 2244 2841 1947 2841 
Q 1628 2841 1473 2761 
Q 1319 2681 1319 2516 
Q 1319 2381 1436 2309 
Q 1553 2238 1856 2203 
L 2053 2175 
Q 2913 2066 3209 1816 
Q 3506 1566 3506 1031 
Q 3506 472 3093 190 
Q 2681 -91 1863 -91 
Q 1516 -91 1145 -36 
Q 775 19 384 128 
L 384 978 
Q 719 816 1070 734 
Q 1422 653 1784 653 
Q 2113 653 2278 743 
Q 2444 834 2444 1013 
Q 2444 1163 2330 1236 
Q 2216 1309 1875 1350 
L 1678 1375 
Q 931 1469 631 1722 
Q 331 1975 331 2491 
Q 331 3047 712 3315 
Q 1094 3584 1881 3584 
Q 2191 3584 2531 3537 
Q 2872 3491 3272 3391 
z
" transform="scale(0.015625)"/>
      <path id="DejaVuSans-Bold-70" d="M 1656 506 
L 1656 -1331 
L 538 -1331 
L 538 3500 
L 1656 3500 
L 1656 2988 
Q 1888 3294 2169 3439 
Q 2450 3584 2816 3584 
Q 3463 3584 3878 3070 
Q 4294 2556 4294 1747 
Q 4294 938 3878 423 
Q 3463 -91 2816 -91 
Q 2450 -91 2169 54 
Q 1888 200 1656 506 
z
M 2400 2772 
Q 2041 2772 1848 2508 
Q 1656 2244 1656 1747 
Q 1656 1250 1848 986 
Q 2041 722 2400 722 
Q 2759 722 2948 984 
Q 3138 1247 3138 1747 
Q 3138 2247 2948 2509 
Q 2759 2772 2400 2772 
z
" transform="scale(0.015625)"/>
      <path id="DejaVuSans-Bold-6f" d="M 2203 2784 
Q 1831 2784 1636 2517 
Q 1441 2250 1441 1747 
Q 1441 1244 1636 976 
Q 1831 709 2203 709 
Q 2569 709 2762 976 
Q 2956 1244 2956 1747 
Q 2956 2250 2762 2517 
Q 2569 2784 2203 2784 
z
M 2203 3584 
Q 3106 3584 3614 3096 
Q 4122 2609 4122 1747 
Q 4122 884 3614 396 
Q 3106 -91 2203 -91 
Q 1297 -91 786 396 
Q 275 884 275 1747 
Q 275 2609 786 3096 
Q 1297 3584 2203 3584 
z
" transform="scale(0.015625)"/>
      <path id="DejaVuSans-Bold-6e" d="M 4056 2131 
L 4056 0 
L 2931 0 
L 2931 347 
L 2931 1631 
Q 2931 2084 2911 2256 
Q 2891 2428 2841 2509 
Q 2775 2619 2662 2680 
Q 2550 2741 2406 2741 
Q 2056 2741 1856 2470 
Q 1656 2200 1656 1722 
L 1656 0 
L 538 0 
L 538 3500 
L 1656 3500 
L 1656 2988 
Q 1909 3294 2193 3439 
Q 2478 3584 2822 3584 
Q 3428 3584 3742 3212 
Q 4056 2841 4056 2131 
z
" transform="scale(0.015625)"/>
      <path id="DejaVuSans-Bold-2c" d="M 653 1209 
L 1778 1209 
L 1778 256 
L 1006 -909 
L 341 -909 
L 653 256 
L 653 1209 
z
" transform="scale(0.015625)"/>
      <path id="DejaVuSans-Bold-64" d="M 2919 2988 
L 2919 4863 
L 4044 4863 
L 4044 0 
L 2919 0 
L 2919 506 
Q 2688 197 2409 53 
Q 2131 -91 1766 -91 
Q 1119 -91 703 423 
Q 288 938 288 1747 
Q 288 2556 703 3070 
Q 1119 3584 1766 3584 
Q 2128 3584 2408 3439 
Q 2688 3294 2919 2988 
z
M 2181 722 
Q 2541 722 2730 984 
Q 2919 1247 2919 1747 
Q 2919 2247 2730 2509 
Q 2541 2772 2181 2772 
Q 1825 2772 1636 2509 
Q 1447 2247 1447 1747 
Q 1447 1247 1636 984 
Q 1825 722 2181 722 
z
" transform="scale(0.015625)"/>
      <path id="DejaVuSans-Bold-31" d="M 750 831 
L 1813 831 
L 1813 3847 
L 722 3622 
L 722 4441 
L 1806 4666 
L 2950 4666 
L 2950 831 
L 4013 831 
L 4013 0 
L 750 0 
L 750 831 
z
" transform="scale(0.015625)"/>
     </defs>
     <use xlink:href="#DejaVuSans-Bold-46"/>
     <use xlink:href="#DejaVuSans-Bold-69" transform="translate(68.310547 0)"/>
     <use xlink:href="#DejaVuSans-Bold-67" transform="translate(102.587891 0)"/>
     <use xlink:href="#DejaVuSans-Bold-75" transform="translate(174.169922 0)"/>
     <use xlink:href="#DejaVuSans-Bold-72" transform="translate(245.361328 0)"/>
     <use xlink:href="#DejaVuSans-Bold-65" transform="translate(294.677734 0)"/>
     <use xlink:href="#DejaVuSans-Bold-20" transform="translate(362.5 0)"/>
     <use xlink:href="#DejaVuSans-Bold-37" transform="translate(397.314453 0)"/>
     <use xlink:href="#DejaVuSans-Bold-20" transform="translate(466.894531 0)"/>
     <use xlink:href="#DejaVuSans-Bold-b7" transform="translate(501.708984 0)"/>
     <use xlink:href="#DejaVuSans-Bold-20" transform="translate(539.697266 0)"/>
     <use xlink:href="#DejaVuSans-Bold-50" transform="translate(574.511719 0)"/>
     <use xlink:href="#DejaVuSans-Bold-65" transform="translate(647.802734 0)"/>
     <use xlink:href="#DejaVuSans-Bold-72" transform="translate(715.625 0)"/>
     <use xlink:href="#DejaVuSans-Bold-2d" transform="translate(764.941406 0)"/>
     <use xlink:href="#DejaVuSans-Bold-63" transform="translate(806.445312 0)"/>
     <use xlink:href="#DejaVuSans-Bold-6c" transform="translate(865.722656 0)"/>
     <use xlink:href="#DejaVuSans-Bold-61" transform="translate(900 0)"/>
     <use xlink:href="#DejaVuSans-Bold-73" transform="translate(967.480469 0)"/>
     <use xlink:href="#DejaVuSans-Bold-73" transform="translate(1027.001953 0)"/>
     <use xlink:href="#DejaVuSans-Bold-20" transform="translate(1086.523438 0)"/>
     <use xlink:href="#DejaVuSans-Bold-70" transform="translate(1121.337891 0)"/>
     <use xlink:href="#DejaVuSans-Bold-72" transform="translate(1192.919922 0)"/>
     <use xlink:href="#DejaVuSans-Bold-65" transform="translate(1242.236328 0)"/>
     <use xlink:href="#DejaVuSans-Bold-63" transform="translate(1310.058594 0)"/>
     <use xlink:href="#DejaVuSans-Bold-69" transform="translate(1369.335938 0)"/>
     <use xlink:href="#DejaVuSans-Bold-73" transform="translate(1403.613281 0)"/>
     <use xlink:href="#DejaVuSans-Bold-69" transform="translate(1463.134766 0)"/>
     <use xlink:href="#DejaVuSans-Bold-6f" transform="translate(1497.412109 0)"/>
     <use xlink:href="#DejaVuSans-Bold-6e" transform="translate(1566.113281 0)"/>
     <use xlink:href="#DejaVuSans-Bold-2c" transform="translate(1637.304688 0)"/>
     <use xlink:href="#DejaVuSans-Bold-20" transform="translate(1675.292969 0)"/>
     <use xlink:href="#DejaVuSans-Bold-72" transform="translate(1710.107422 0)"/>
     <use xlink:href="#DejaVuSans-Bold-65" transform="translate(1759.423828 0)"/>
     <use xlink:href="#DejaVuSans-Bold-63" transform="translate(1827.246094 0)"/>
     <use xlink:href="#DejaVuSans-Bold-61" transform="translate(1886.523438 0)"/>
     <use xlink:href="#DejaVuSans-Bold-6c" transform="translate(1954.003906 0)"/>
     <use xlink:href="#DejaVuSans-Bold-6c" transform="translate(1988.28125 0)"/>
     <use xlink:href="#DejaVuSans-Bold-20" transform="translate(2022.558594 0)"/>
     <use xlink:href="#DejaVuSans-Bold-61" transform="translate(2057.373047 0)"/>
     <use xlink:href="#DejaVuSans-Bold-6e" transform="translate(2124.853516 0)"/>
     <use xlink:href="#DejaVuSans-Bold-64" transform="translate(2196.044922 0)"/>
     <use xlink:href="#DejaVuSans-Bold-20" transform="translate(2267.626953 0)"/>
     <use xlink:href="#DejaVuSans-Bold-46" transform="translate(2302.441406 0)"/>
     <use xlink:href="#DejaVuSans-Bold-31" transform="translate(2370.751953 0)"/>
    </g>
    <!-- the four weakest classes are the four smallest — imbalance, not chemistry -->
    <g style="fill: #1a1a1a" transform="translate(45.704063 33.721812) scale(0.11 -0.11)">
     <defs>
      <path id="DejaVuSans-Bold-74" d="M 1759 4494 
L 1759 3500 
L 2913 3500 
L 2913 2700 
L 1759 2700 
L 1759 1216 
Q 1759 972 1856 886 
Q 1953 800 2241 800 
L 2816 800 
L 2816 0 
L 1856 0 
Q 1194 0 917 276 
Q 641 553 641 1216 
L 641 2700 
L 84 2700 
L 84 3500 
L 641 3500 
L 641 4494 
L 1759 4494 
z
" transform="scale(0.015625)"/>
      <path id="DejaVuSans-Bold-68" d="M 4056 2131 
L 4056 0 
L 2931 0 
L 2931 347 
L 2931 1625 
Q 2931 2084 2911 2256 
Q 2891 2428 2841 2509 
Q 2775 2619 2662 2680 
Q 2550 2741 2406 2741 
Q 2056 2741 1856 2470 
Q 1656 2200 1656 1722 
L 1656 0 
L 538 0 
L 538 4863 
L 1656 4863 
L 1656 2988 
Q 1909 3294 2193 3439 
Q 2478 3584 2822 3584 
Q 3428 3584 3742 3212 
Q 4056 2841 4056 2131 
z
" transform="scale(0.015625)"/>
      <path id="DejaVuSans-Bold-66" d="M 2841 4863 
L 2841 4128 
L 2222 4128 
Q 1984 4128 1890 4042 
Q 1797 3956 1797 3744 
L 1797 3500 
L 2753 3500 
L 2753 2700 
L 1797 2700 
L 1797 0 
L 678 0 
L 678 2700 
L 122 2700 
L 122 3500 
L 678 3500 
L 678 3744 
Q 678 4316 997 4589 
Q 1316 4863 1984 4863 
L 2841 4863 
z
" transform="scale(0.015625)"/>
      <path id="DejaVuSans-Bold-77" d="M 225 3500 
L 1313 3500 
L 1900 1088 
L 2491 3500 
L 3425 3500 
L 4013 1113 
L 4603 3500 
L 5691 3500 
L 4769 0 
L 3547 0 
L 2956 2406 
L 2369 0 
L 1147 0 
L 225 3500 
z
" transform="scale(0.015625)"/>
      <path id="DejaVuSans-Bold-6b" d="M 538 4863 
L 1656 4863 
L 1656 2216 
L 2944 3500 
L 4244 3500 
L 2534 1894 
L 4378 0 
L 3022 0 
L 1656 1459 
L 1656 0 
L 538 0 
L 538 4863 
z
" transform="scale(0.015625)"/>
      <path id="DejaVuSans-Bold-6d" d="M 3781 2919 
Q 3994 3244 4286 3414 
Q 4578 3584 4928 3584 
Q 5531 3584 5847 3212 
Q 6163 2841 6163 2131 
L 6163 0 
L 5038 0 
L 5038 1825 
Q 5041 1866 5042 1909 
Q 5044 1953 5044 2034 
Q 5044 2406 4934 2573 
Q 4825 2741 4581 2741 
Q 4263 2741 4089 2478 
Q 3916 2216 3909 1719 
L 3909 0 
L 2784 0 
L 2784 1825 
Q 2784 2406 2684 2573 
Q 2584 2741 2328 2741 
Q 2006 2741 1831 2477 
Q 1656 2213 1656 1722 
L 1656 0 
L 531 0 
L 531 3500 
L 1656 3500 
L 1656 2988 
Q 1863 3284 2130 3434 
Q 2397 3584 2719 3584 
Q 3081 3584 3359 3409 
Q 3638 3234 3781 2919 
z
" transform="scale(0.015625)"/>
      <path id="DejaVuSans-Bold-2014" d="M 344 2156 
L 6056 2156 
L 6056 1350 
L 344 1350 
L 344 2156 
z
" transform="scale(0.015625)"/>
      <path id="DejaVuSans-Bold-62" d="M 2400 722 
Q 2759 722 2948 984 
Q 3138 1247 3138 1747 
Q 3138 2247 2948 2509 
Q 2759 2772 2400 2772 
Q 2041 2772 1848 2508 
Q 1656 2244 1656 1747 
Q 1656 1250 1848 986 
Q 2041 722 2400 722 
z
M 1656 2988 
Q 1888 3294 2169 3439 
Q 2450 3584 2816 3584 
Q 3463 3584 3878 3070 
Q 4294 2556 4294 1747 
Q 4294 938 3878 423 
Q 3463 -91 2816 -91 
Q 2450 -91 2169 54 
Q 1888 200 1656 506 
L 1656 0 
L 538 0 
L 538 4863 
L 1656 4863 
L 1656 2988 
z
" transform="scale(0.015625)"/>
      <path id="DejaVuSans-Bold-79" d="M 78 3500 
L 1197 3500 
L 2138 1125 
L 2938 3500 
L 4056 3500 
L 2584 -331 
Q 2363 -916 2067 -1148 
Q 1772 -1381 1288 -1381 
L 641 -1381 
L 641 -647 
L 991 -647 
Q 1275 -647 1404 -556 
Q 1534 -466 1606 -231 
L 1638 -134 
L 78 3500 
z
" transform="scale(0.015625)"/>
     </defs>
     <use xlink:href="#DejaVuSans-Bold-74"/>
     <use xlink:href="#DejaVuSans-Bold-68" transform="translate(47.802734 0)"/>
     <use xlink:href="#DejaVuSans-Bold-65" transform="translate(118.994141 0)"/>
     <use xlink:href="#DejaVuSans-Bold-20" transform="translate(186.816406 0)"/>
     <use xlink:href="#DejaVuSans-Bold-66" transform="translate(221.630859 0)"/>
     <use xlink:href="#DejaVuSans-Bold-6f" transform="translate(265.136719 0)"/>
     <use xlink:href="#DejaVuSans-Bold-75" transform="translate(333.837891 0)"/>
     <use xlink:href="#DejaVuSans-Bold-72" transform="translate(405.029297 0)"/>
     <use xlink:href="#DejaVuSans-Bold-20" transform="translate(454.345703 0)"/>
     <use xlink:href="#DejaVuSans-Bold-77" transform="translate(489.160156 0)"/>
     <use xlink:href="#DejaVuSans-Bold-65" transform="translate(581.542969 0)"/>
     <use xlink:href="#DejaVuSans-Bold-61" transform="translate(649.365234 0)"/>
     <use xlink:href="#DejaVuSans-Bold-6b" transform="translate(716.845703 0)"/>
     <use xlink:href="#DejaVuSans-Bold-65" transform="translate(780.724609 0)"/>
     <use xlink:href="#DejaVuSans-Bold-73" transform="translate(848.546875 0)"/>
     <use xlink:href="#DejaVuSans-Bold-74" transform="translate(908.068359 0)"/>
     <use xlink:href="#DejaVuSans-Bold-20" transform="translate(955.871094 0)"/>
     <use xlink:href="#DejaVuSans-Bold-63" transform="translate(990.685547 0)"/>
     <use xlink:href="#DejaVuSans-Bold-6c" transform="translate(1049.962891 0)"/>
     <use xlink:href="#DejaVuSans-Bold-61" transform="translate(1084.240234 0)"/>
     <use xlink:href="#DejaVuSans-Bold-73" transform="translate(1151.720703 0)"/>
     <use xlink:href="#DejaVuSans-Bold-73" transform="translate(1211.242188 0)"/>
     <use xlink:href="#DejaVuSans-Bold-65" transform="translate(1270.763672 0)"/>
     <use xlink:href="#DejaVuSans-Bold-73" transform="translate(1338.585938 0)"/>
     <use xlink:href="#DejaVuSans-Bold-20" transform="translate(1398.107422 0)"/>
     <use xlink:href="#DejaVuSans-Bold-61" transform="translate(1432.921875 0)"/>
     <use xlink:href="#DejaVuSans-Bold-72" transform="translate(1500.402344 0)"/>
     <use xlink:href="#DejaVuSans-Bold-65" transform="translate(1549.71875 0)"/>
     <use xlink:href="#DejaVuSans-Bold-20" transform="translate(1617.541016 0)"/>
     <use xlink:href="#DejaVuSans-Bold-74" transform="translate(1652.355469 0)"/>
     <use xlink:href="#DejaVuSans-Bold-68" transform="translate(1700.158203 0)"/>
     <use xlink:href="#DejaVuSans-Bold-65" transform="translate(1771.349609 0)"/>
     <use xlink:href="#DejaVuSans-Bold-20" transform="translate(1839.171875 0)"/>
     <use xlink:href="#DejaVuSans-Bold-66" transform="translate(1873.986328 0)"/>
     <use xlink:href="#DejaVuSans-Bold-6f" transform="translate(1917.492188 0)"/>
     <use xlink:href="#DejaVuSans-Bold-75" transform="translate(1986.193359 0)"/>
     <use xlink:href="#DejaVuSans-Bold-72" transform="translate(2057.384766 0)"/>
     <use xlink:href="#DejaVuSans-Bold-20" transform="translate(2106.701172 0)"/>
     <use xlink:href="#DejaVuSans-Bold-73" transform="translate(2141.515625 0)"/>
     <use xlink:href="#DejaVuSans-Bold-6d" transform="translate(2201.037109 0)"/>
     <use xlink:href="#DejaVuSans-Bold-61" transform="translate(2305.236328 0)"/>
     <use xlink:href="#DejaVuSans-Bold-6c" transform="translate(2372.716797 0)"/>
     <use xlink:href="#DejaVuSans-Bold-6c" transform="translate(2406.994141 0)"/>
     <use xlink:href="#DejaVuSans-Bold-65" transform="translate(2441.271484 0)"/>
     <use xlink:href="#DejaVuSans-Bold-73" transform="translate(2509.09375 0)"/>
     <use xlink:href="#DejaVuSans-Bold-74" transform="translate(2568.615234 0)"/>
     <use xlink:href="#DejaVuSans-Bold-20" transform="translate(2616.417969 0)"/>
     <use xlink:href="#DejaVuSans-Bold-2014" transform="translate(2651.232422 0)"/>
     <use xlink:href="#DejaVuSans-Bold-20" transform="translate(2751.232422 0)"/>
     <use xlink:href="#DejaVuSans-Bold-69" transform="translate(2786.046875 0)"/>
     <use xlink:href="#DejaVuSans-Bold-6d" transform="translate(2820.324219 0)"/>
     <use xlink:href="#DejaVuSans-Bold-62" transform="translate(2924.523438 0)"/>
     <use xlink:href="#DejaVuSans-Bold-61" transform="translate(2996.105469 0)"/>
     <use xlink:href="#DejaVuSans-Bold-6c" transform="translate(3063.585938 0)"/>
     <use xlink:href="#DejaVuSans-Bold-61" transform="translate(3097.863281 0)"/>
     <use xlink:href="#DejaVuSans-Bold-6e" transform="translate(3165.34375 0)"/>
     <use xlink:href="#DejaVuSans-Bold-63" transform="translate(3236.535156 0)"/>
     <use xlink:href="#DejaVuSans-Bold-65" transform="translate(3295.8125 0)"/>
     <use xlink:href="#DejaVuSans-Bold-2c" transform="translate(3363.634766 0)"/>
     <use xlink:href="#DejaVuSans-Bold-20" transform="translate(3401.623047 0)"/>
     <use xlink:href="#DejaVuSans-Bold-6e" transform="translate(3436.4375 0)"/>
     <use xlink:href="#DejaVuSans-Bold-6f" transform="translate(3507.628906 0)"/>
     <use xlink:href="#DejaVuSans-Bold-74" transform="translate(3576.330078 0)"/>
     <use xlink:href="#DejaVuSans-Bold-20" transform="translate(3624.132812 0)"/>
     <use xlink:href="#DejaVuSans-Bold-63" transform="translate(3658.947266 0)"/>
     <use xlink:href="#DejaVuSans-Bold-68" transform="translate(3718.224609 0)"/>
     <use xlink:href="#DejaVuSans-Bold-65" transform="translate(3789.416016 0)"/>
     <use xlink:href="#DejaVuSans-Bold-6d" transform="translate(3857.238281 0)"/>
     <use xlink:href="#DejaVuSans-Bold-69" transform="translate(3961.4375 0)"/>
     <use xlink:href="#DejaVuSans-Bold-73" transform="translate(3995.714844 0)"/>
     <use xlink:href="#DejaVuSans-Bold-74" transform="translate(4055.236328 0)"/>
     <use xlink:href="#DejaVuSans-Bold-72" transform="translate(4103.039062 0)"/>
     <use xlink:href="#DejaVuSans-Bold-79" transform="translate(4152.355469 0)"/>
    </g>
   </g>
   <g id="legend_1">
    <g id="line2d_24">
     <path d="M 52.544063 49.676625 
L 60.144063 49.676625 
L 67.744062 49.676625 
" style="fill: none; stroke-dasharray: 4.07,1.76; stroke-dashoffset: 0; stroke: #b91c1c; stroke-width: 1.1"/>
    </g>
    <g id="text_25">
     <!-- macro-F1 0.793 -->
     <g transform="translate(73.824062 52.336625) scale(0.076 -0.076)">
      <defs>
       <path id="DejaVuSans-2d" d="M 313 2009 
L 1997 2009 
L 1997 1497 
L 313 1497 
L 313 2009 
z
" transform="scale(0.015625)"/>
       <path id="DejaVuSans-46" d="M 628 4666 
L 3309 4666 
L 3309 4134 
L 1259 4134 
L 1259 2759 
L 3109 2759 
L 3109 2228 
L 1259 2228 
L 1259 0 
L 628 0 
L 628 4666 
z
" transform="scale(0.015625)"/>
      </defs>
      <use xlink:href="#DejaVuSans-6d"/>
      <use xlink:href="#DejaVuSans-61" transform="translate(97.412109 0)"/>
      <use xlink:href="#DejaVuSans-63" transform="translate(158.691406 0)"/>
      <use xlink:href="#DejaVuSans-72" transform="translate(213.671875 0)"/>
      <use xlink:href="#DejaVuSans-6f" transform="translate(252.535156 0)"/>
      <use xlink:href="#DejaVuSans-2d" transform="translate(315.591797 0)"/>
      <use xlink:href="#DejaVuSans-46" transform="translate(351.675781 0)"/>
      <use xlink:href="#DejaVuSans-31" transform="translate(409.195312 0)"/>
      <use xlink:href="#DejaVuSans-20" transform="translate(472.818359 0)"/>
      <use xlink:href="#DejaVuSans-30" transform="translate(504.605469 0)"/>
      <use xlink:href="#DejaVuSans-2e" transform="translate(568.228516 0)"/>
      <use xlink:href="#DejaVuSans-37" transform="translate(600.015625 0)"/>
      <use xlink:href="#DejaVuSans-39" transform="translate(663.638672 0)"/>
      <use xlink:href="#DejaVuSans-33" transform="translate(727.261719 0)"/>
     </g>
    </g>
    <g id="patch_55">
     <path d="M 149.130562 52.336625 
L 164.330562 52.336625 
L 164.330562 47.016625 
L 149.130562 47.016625 
z
" style="fill: #2563eb; opacity: 0.9"/>
    </g>
    <g id="text_26">
     <!-- precision -->
     <g transform="translate(170.410562 52.336625) scale(0.076 -0.076)">
      <use xlink:href="#DejaVuSans-70"/>
      <use xlink:href="#DejaVuSans-72" transform="translate(63.476562 0)"/>
      <use xlink:href="#DejaVuSans-65" transform="translate(102.339844 0)"/>
      <use xlink:href="#DejaVuSans-63" transform="translate(163.863281 0)"/>
      <use xlink:href="#DejaVuSans-69" transform="translate(218.84375 0)"/>
      <use xlink:href="#DejaVuSans-73" transform="translate(246.626953 0)"/>
      <use xlink:href="#DejaVuSans-69" transform="translate(298.726562 0)"/>
      <use xlink:href="#DejaVuSans-6f" transform="translate(326.509766 0)"/>
      <use xlink:href="#DejaVuSans-6e" transform="translate(387.691406 0)"/>
     </g>
    </g>
    <g id="patch_56">
     <path d="M 219.8925 52.336625 
L 235.0925 52.336625 
L 235.0925 47.016625 
L 219.8925 47.016625 
z
" style="fill: #15803d; opacity: 0.9"/>
    </g>
    <g id="text_27">
     <!-- recall -->
     <g transform="translate(241.1725 52.336625) scale(0.076 -0.076)">
      <use xlink:href="#DejaVuSans-72"/>
      <use xlink:href="#DejaVuSans-65" transform="translate(38.863281 0)"/>
      <use xlink:href="#DejaVuSans-63" transform="translate(100.386719 0)"/>
      <use xlink:href="#DejaVuSans-61" transform="translate(155.367188 0)"/>
      <use xlink:href="#DejaVuSans-6c" transform="translate(216.646484 0)"/>
      <use xlink:href="#DejaVuSans-6c" transform="translate(244.429688 0)"/>
     </g>
    </g>
    <g id="patch_57">
     <path d="M 277.061125 52.336625 
L 292.261125 52.336625 
L 292.261125 47.016625 
L 277.061125 47.016625 
z
" style="fill: #7c3aed; opacity: 0.9"/>
    </g>
    <g id="text_28">
     <!-- F1 -->
     <g transform="translate(298.341125 52.336625) scale(0.076 -0.076)">
      <use xlink:href="#DejaVuSans-46"/>
      <use xlink:href="#DejaVuSans-31" transform="translate(57.519531 0)"/>
     </g>
    </g>
   </g>
  </g>
 </g>
 <defs>
  <clipPath id="p691f27472b">
   <rect x="45.704063" y="39.721812" width="569.16" height="277.2"/>
  </clipPath>
 </defs>
</svg>
