<?xml version="1.0" encoding="utf-8" standalone="no"?>
<!DOCTYPE svg PUBLIC "-//W3C//DTD SVG 1.1//EN"
  "http://www.w3.org/Graphics/SVG/1.1/DTD/svg11.dtd">
<svg xmlns:xlink="http://www.w3.org/1999/xlink" width="830.715964pt" height="312.208875pt" viewBox="0 0 830.715964 312.208875" xmlns="http://www.w3.org/2000/svg" version="1.1">
 <metadata>
  <rdf:RDF xmlns:dc="http://purl.org/dc/elements/1.1/" xmlns:cc="http://creativecommons.org/ns#" xmlns:rdf="http://www.w3.org/1999/02/22-rdf-syntax-ns#">
   <cc:Work>
    <dc:type rdf:resource="http://purl.org/dc/dcmitype/StillImage"/>
    <dc:date>2026-08-05T22:39:00.488939</dc:date>
    <dc:format>image/svg+xml</dc:format>
    <dc:creator>
     <cc:Agent>
      <dc:title>Matplotlib v3.10.8, https://matplotlib.org/</dc:title>
     </cc:Agent>
    </dc:creator>
   </cc:Work>
  </rdf:RDF>
 </metadata>
 <defs>
  <style type="text/css">*{stroke-linejoin: round; stroke-linecap: butt}</style>
 </defs>
 <g id="figure_1">
  <g id="patch_1">
   <path d="M 0 312.208875 
L 830.715964 312.208875 
L 830.715964 -0 
L 0 -0 
z
" style="fill: #ffffff"/>
  </g>
  <g id="axes_1">
   <g id="patch_2">
    <path d="M 51.806 227.792 
L 398.182488 227.792 
L 398.182488 87.912 
L 51.806 87.912 
z
" style="fill: #ffffff"/>
   </g>
   <g id="patch_3">
    <path d="M 67.550386 227.792 
L 75.133233 227.792 
L 75.133233 186.280945 
L 67.550386 186.280945 
z
" clip-path="url(#pa3b8441d86)" style="fill: #4b5563"/>
   </g>
   <g id="patch_4">
    <path d="M 87.505247 227.792 
L 95.088095 227.792 
L 95.088095 186.254301 
L 87.505247 186.254301 
z
" clip-path="url(#pa3b8441d86)" style="fill: #4b5563"/>
   </g>
   <g id="patch_5">
    <path d="M 107.460109 227.792 
L 115.042956 227.792 
L 115.042956 186.254301 
L 107.460109 186.254301 
z
" clip-path="url(#pa3b8441d86)" style="fill: #4b5563"/>
   </g>
   <g id="patch_6">
    <path d="M 127.414971 227.792 
L 134.997818 227.792 
L 134.997818 186.254301 
L 127.414971 186.254301 
z
" clip-path="url(#pa3b8441d86)" style="fill: #4b5563"/>
   </g>
   <g id="patch_7">
    <path d="M 147.369832 227.792 
L 154.95268 227.792 
L 154.95268 186.254301 
L 147.369832 186.254301 
z
" clip-path="url(#pa3b8441d86)" style="fill: #4b5563"/>
   </g>
   <g id="patch_8">
    <path d="M 167.324694 227.792 
L 174.907541 227.792 
L 174.907541 186.280945 
L 167.324694 186.280945 
z
" clip-path="url(#pa3b8441d86)" style="fill: #4b5563"/>
   </g>
   <g id="patch_9">
    <path d="M 187.279555 227.792 
L 194.862403 227.792 
L 194.862403 186.280945 
L 187.279555 186.280945 
z
" clip-path="url(#pa3b8441d86)" style="fill: #4b5563"/>
   </g>
   <g id="patch_10">
    <path d="M 207.234417 227.792 
L 214.817264 227.792 
L 214.817264 186.227657 
L 207.234417 186.227657 
z
" clip-path="url(#pa3b8441d86)" style="fill: #4b5563"/>
   </g>
   <g id="patch_11">
    <path d="M 227.189279 227.792 
L 234.772126 227.792 
L 234.772126 186.227657 
L 227.189279 186.227657 
z
" clip-path="url(#pa3b8441d86)" style="fill: #4b5563"/>
   </g>
   <g id="patch_12">
    <path d="M 247.14414 227.792 
L 254.726988 227.792 
L 254.726988 186.227657 
L 247.14414 186.227657 
z
" clip-path="url(#pa3b8441d86)" style="fill: #4b5563"/>
   </g>
   <g id="patch_13">
    <path d="M 267.099002 227.792 
L 274.681849 227.792 
L 274.681849 186.227657 
L 267.099002 186.227657 
z
" clip-path="url(#pa3b8441d86)" style="fill: #4b5563"/>
   </g>
   <g id="patch_14">
    <path d="M 287.053863 227.792 
L 294.636711 227.792 
L 294.636711 186.227657 
L 287.053863 186.227657 
z
" clip-path="url(#pa3b8441d86)" style="fill: #4b5563"/>
   </g>
   <g id="patch_15">
    <path d="M 307.008725 227.792 
L 314.591572 227.792 
L 314.591572 186.227657 
L 307.008725 186.227657 
z
" clip-path="url(#pa3b8441d86)" style="fill: #4b5563"/>
   </g>
   <g id="patch_16">
    <path d="M 326.963587 227.792 
L 334.546434 227.792 
L 334.546434 186.227657 
L 326.963587 186.227657 
z
" clip-path="url(#pa3b8441d86)" style="fill: #4b5563"/>
   </g>
   <g id="patch_17">
    <path d="M 346.918448 227.792 
L 354.501296 227.792 
L 354.501296 186.227657 
L 346.918448 186.227657 
z
" clip-path="url(#pa3b8441d86)" style="fill: #4b5563"/>
   </g>
   <g id="patch_18">
    <path d="M 366.87331 227.792 
L 374.456157 227.792 
L 374.456157 186.227657 
L 366.87331 186.227657 
z
" clip-path="url(#pa3b8441d86)" style="fill: #4b5563"/>
   </g>
   <g id="patch_19">
    <path d="M 75.53233 227.792 
L 83.115178 227.792 
L 83.115178 210.020579 
L 75.53233 210.020579 
z
" clip-path="url(#pa3b8441d86)" style="fill: #2563eb"/>
   </g>
   <g id="patch_20">
    <path d="M 95.487192 227.792 
L 103.070039 227.792 
L 103.070039 161.182476 
L 95.487192 161.182476 
z
" clip-path="url(#pa3b8441d86)" style="fill: #2563eb"/>
   </g>
   <g id="patch_21">
    <path d="M 115.442054 227.792 
L 123.024901 227.792 
L 123.024901 153.775497 
L 115.442054 153.775497 
z
" clip-path="url(#pa3b8441d86)" style="fill: #2563eb"/>
   </g>
   <g id="patch_22">
    <path d="M 135.396915 227.792 
L 142.979763 227.792 
L 142.979763 212.12544 
L 135.396915 212.12544 
z
" clip-path="url(#pa3b8441d86)" style="fill: #2563eb"/>
   </g>
   <g id="patch_23">
    <path d="M 155.351777 227.792 
L 162.934624 227.792 
L 162.934624 196.45888 
L 155.351777 196.45888 
z
" clip-path="url(#pa3b8441d86)" style="fill: #2563eb"/>
   </g>
   <g id="patch_24">
    <path d="M 175.306638 227.792 
L 182.889486 227.792 
L 182.889486 174.504381 
L 175.306638 174.504381 
z
" clip-path="url(#pa3b8441d86)" style="fill: #2563eb"/>
   </g>
   <g id="patch_25">
    <path d="M 195.2615 227.792 
L 202.844347 227.792 
L 202.844347 127.877714 
L 195.2615 127.877714 
z
" clip-path="url(#pa3b8441d86)" style="fill: #2563eb"/>
   </g>
   <g id="patch_26">
    <path d="M 215.216362 227.792 
L 222.799209 227.792 
L 222.799209 121.216762 
L 215.216362 121.216762 
z
" clip-path="url(#pa3b8441d86)" style="fill: #2563eb"/>
   </g>
   <g id="patch_27">
    <path d="M 235.171223 227.792 
L 242.754071 227.792 
L 242.754071 174.504381 
L 235.171223 174.504381 
z
" clip-path="url(#pa3b8441d86)" style="fill: #2563eb"/>
   </g>
   <g id="patch_28">
    <path d="M 255.126085 227.792 
L 262.708932 227.792 
L 262.708932 121.216762 
L 255.126085 121.216762 
z
" clip-path="url(#pa3b8441d86)" style="fill: #2563eb"/>
   </g>
   <g id="patch_29">
    <path d="M 275.080946 227.792 
L 282.663794 227.792 
L 282.663794 94.572952 
L 275.080946 94.572952 
z
" clip-path="url(#pa3b8441d86)" style="fill: #2563eb"/>
   </g>
   <g id="patch_30">
    <path d="M 295.035808 227.792 
L 302.618655 227.792 
L 302.618655 94.572952 
L 295.035808 94.572952 
z
" clip-path="url(#pa3b8441d86)" style="fill: #2563eb"/>
   </g>
   <g id="patch_31">
    <path d="M 314.99067 227.792 
L 322.573517 227.792 
L 322.573517 138.988183 
L 314.99067 138.988183 
z
" clip-path="url(#pa3b8441d86)" style="fill: #2563eb"/>
   </g>
   <g id="patch_32">
    <path d="M 334.945531 227.792 
L 342.528379 227.792 
L 342.528379 138.988183 
L 334.945531 138.988183 
z
" clip-path="url(#pa3b8441d86)" style="fill: #2563eb"/>
   </g>
   <g id="patch_33">
    <path d="M 354.900393 227.792 
L 362.48324 227.792 
L 362.48324 138.988183 
L 354.900393 138.988183 
z
" clip-path="url(#pa3b8441d86)" style="fill: #2563eb"/>
   </g>
   <g id="patch_34">
    <path d="M 374.855254 227.792 
L 382.438102 227.792 
L 382.438102 94.572952 
L 374.855254 94.572952 
z
" clip-path="url(#pa3b8441d86)" style="fill: #2563eb"/>
   </g>
   <g id="matplotlib.axis_1">
    <g id="xtick_1">
     <g id="line2d_1">
      <defs>
       <path id="m424ff676e5" d="M 0 0 
L 0 3.5 
" style="stroke: #000000; stroke-width: 0.8"/>
      </defs>
      <g>
       <use xlink:href="#m424ff676e5" x="75.332782" y="227.792" style="stroke: #000000; stroke-width: 0.8"/>
      </g>
     </g>
     <g id="text_1">
      <text style="font-size: 6px; font-family: 'DejaVu Sans'" transform="translate(76.988407 280.854188) rotate(-90)">peptide protein</text>
     </g>
    </g>
    <g id="xtick_2">
     <g id="line2d_2">
      <g>
       <use xlink:href="#m424ff676e5" x="95.287643" y="227.792" style="stroke: #000000; stroke-width: 0.8"/>
      </g>
     </g>
     <g id="text_2">
      <text style="font-size: 6px; font-family: 'DejaVu Sans'" transform="translate(96.943268 293.187) rotate(-90)">mono oligosacchari</text>
     </g>
    </g>
    <g id="xtick_3">
     <g id="line2d_3">
      <g>
       <use xlink:href="#m424ff676e5" x="115.242505" y="227.792" style="stroke: #000000; stroke-width: 0.8"/>
      </g>
     </g>
     <g id="text_3">
      <text style="font-size: 6px; font-family: 'DejaVu Sans'" transform="translate(116.89813 281.547) rotate(-90)">free amino acid</text>
     </g>
    </g>
    <g id="xtick_4">
     <g id="line2d_4">
      <g>
       <use xlink:href="#m424ff676e5" x="135.197367" y="227.792" style="stroke: #000000; stroke-width: 0.8"/>
      </g>
     </g>
     <g id="text_4">
      <text style="font-size: 6px; font-family: 'DejaVu Sans'" transform="translate(136.852992 270.673875) rotate(-90)">acylglycerol</text>
     </g>
    </g>
    <g id="xtick_5">
     <g id="line2d_5">
      <g>
       <use xlink:href="#m424ff676e5" x="155.152228" y="227.792" style="stroke: #000000; stroke-width: 0.8"/>
      </g>
     </g>
     <g id="text_5">
      <text style="font-size: 6px; font-family: 'DejaVu Sans'" transform="translate(156.807853 263.195438) rotate(-90)">fatty acid</text>
     </g>
    </g>
    <g id="xtick_6">
     <g id="line2d_6">
      <g>
       <use xlink:href="#m424ff676e5" x="175.10709" y="227.792" style="stroke: #000000; stroke-width: 0.8"/>
      </g>
     </g>
     <g id="text_6">
      <text style="font-size: 6px; font-family: 'DejaVu Sans'" transform="translate(176.762715 274.186688) rotate(-90)">sterol steroid</text>
     </g>
    </g>
    <g id="xtick_7">
     <g id="line2d_7">
      <g>
       <use xlink:href="#m424ff676e5" x="195.061951" y="227.792" style="stroke: #000000; stroke-width: 0.8"/>
      </g>
     </g>
     <g id="text_7">
      <text style="font-size: 6px; font-family: 'DejaVu Sans'" transform="translate(196.717576 291.0645) rotate(-90)">carboxylic acid me</text>
     </g>
    </g>
    <g id="xtick_8">
     <g id="line2d_8">
      <g>
       <use xlink:href="#m424ff676e5" x="215.016813" y="227.792" style="stroke: #000000; stroke-width: 0.8"/>
      </g>
     </g>
     <g id="text_8">
      <text style="font-size: 6px; font-family: 'DejaVu Sans'" transform="translate(216.672438 291.215438) rotate(-90)">phospholipid sphin</text>
     </g>
    </g>
    <g id="xtick_9">
     <g id="line2d_9">
      <g>
       <use xlink:href="#m424ff676e5" x="234.971675" y="227.792" style="stroke: #000000; stroke-width: 0.8"/>
      </g>
     </g>
     <g id="text_9">
      <text style="font-size: 6px; font-family: 'DejaVu Sans'" transform="translate(236.6273 280.004813) rotate(-90)">polysaccharide</text>
     </g>
    </g>
    <g id="xtick_10">
     <g id="line2d_10">
      <g>
       <use xlink:href="#m424ff676e5" x="254.926536" y="227.792" style="stroke: #000000; stroke-width: 0.8"/>
      </g>
     </g>
     <g id="text_10">
      <text style="font-size: 6px; font-family: 'DejaVu Sans'" transform="translate(256.582161 254.031375) rotate(-90)">purine</text>
     </g>
    </g>
    <g id="xtick_11">
     <g id="line2d_11">
      <g>
       <use xlink:href="#m424ff676e5" x="274.881398" y="227.792" style="stroke: #000000; stroke-width: 0.8"/>
      </g>
     </g>
     <g id="text_11">
      <text style="font-size: 6px; font-family: 'DejaVu Sans'" transform="translate(276.537023 299.248875) rotate(-90)">chromophore pigmen</text>
     </g>
    </g>
    <g id="xtick_12">
     <g id="line2d_12">
      <g>
       <use xlink:href="#m424ff676e5" x="294.836259" y="227.792" style="stroke: #000000; stroke-width: 0.8"/>
      </g>
     </g>
     <g id="text_12">
      <text style="font-size: 6px; font-family: 'DejaVu Sans'" transform="translate(296.491884 284.800125) rotate(-90)">sulfur thiol cofac</text>
     </g>
    </g>
    <g id="xtick_13">
     <g id="line2d_13">
      <g>
       <use xlink:href="#m424ff676e5" x="314.791121" y="227.792" style="stroke: #000000; stroke-width: 0.8"/>
      </g>
     </g>
     <g id="text_13">
      <text style="font-size: 6px; font-family: 'DejaVu Sans'" transform="translate(316.446746 290.829188) rotate(-90)">nucleic acid polym</text>
     </g>
    </g>
    <g id="xtick_14">
     <g id="line2d_14">
      <g>
       <use xlink:href="#m424ff676e5" x="334.745983" y="227.792" style="stroke: #000000; stroke-width: 0.8"/>
      </g>
     </g>
     <g id="text_14">
      <text style="font-size: 6px; font-family: 'DejaVu Sans'" transform="translate(336.401608 294.819187) rotate(-90)">phosphate metaboli</text>
     </g>
    </g>
    <g id="xtick_15">
     <g id="line2d_15">
      <g>
       <use xlink:href="#m424ff676e5" x="354.700844" y="227.792" style="stroke: #000000; stroke-width: 0.8"/>
      </g>
     </g>
     <g id="text_15">
      <text style="font-size: 6px; font-family: 'DejaVu Sans'" transform="translate(356.356469 266.767313) rotate(-90)">pyrimidine</text>
     </g>
    </g>
    <g id="xtick_16">
     <g id="line2d_16">
      <g>
       <use xlink:href="#m424ff676e5" x="374.655706" y="227.792" style="stroke: #000000; stroke-width: 0.8"/>
      </g>
     </g>
     <g id="text_16">
      <text style="font-size: 6px; font-family: 'DejaVu Sans'" transform="translate(376.311331 288.406688) rotate(-90)">small nitrogenous</text>
     </g>
    </g>
   </g>
   <g id="matplotlib.axis_2">
    <g id="ytick_1">
     <g id="line2d_17">
      <defs>
       <path id="m28030b04ef" d="M 0 0 
L -3.5 0 
" style="stroke: #000000; stroke-width: 0.8"/>
      </defs>
      <g>
       <use xlink:href="#m28030b04ef" x="51.806" y="227.792" style="stroke: #000000; stroke-width: 0.8"/>
      </g>
     </g>
     <g id="text_17">
      <text style="font-size: 8.5px; font-family: 'DejaVu Sans'; text-anchor: end" x="44.806" y="231.021336" transform="rotate(-0 44.806 231.021336)">0.0</text>
     </g>
    </g>
    <g id="ytick_2">
     <g id="line2d_18">
      <g>
       <use xlink:href="#m28030b04ef" x="51.806" y="201.14819" style="stroke: #000000; stroke-width: 0.8"/>
      </g>
     </g>
     <g id="text_18">
      <text style="font-size: 8.5px; font-family: 'DejaVu Sans'; text-anchor: end" x="44.806" y="204.377526" transform="rotate(-0 44.806 204.377526)">0.1</text>
     </g>
    </g>
    <g id="ytick_3">
     <g id="line2d_19">
      <g>
       <use xlink:href="#m28030b04ef" x="51.806" y="174.504381" style="stroke: #000000; stroke-width: 0.8"/>
      </g>
     </g>
     <g id="text_19">
      <text style="font-size: 8.5px; font-family: 'DejaVu Sans'; text-anchor: end" x="44.806" y="177.733717" transform="rotate(-0 44.806 177.733717)">0.2</text>
     </g>
    </g>
    <g id="ytick_4">
     <g id="line2d_20">
      <g>
       <use xlink:href="#m28030b04ef" x="51.806" y="147.860571" style="stroke: #000000; stroke-width: 0.8"/>
      </g>
     </g>
     <g id="text_20">
      <text style="font-size: 8.5px; font-family: 'DejaVu Sans'; text-anchor: end" x="44.806" y="151.089907" transform="rotate(-0 44.806 151.089907)">0.3</text>
     </g>
    </g>
    <g id="ytick_5">
     <g id="line2d_21">
      <g>
       <use xlink:href="#m28030b04ef" x="51.806" y="121.216762" style="stroke: #000000; stroke-width: 0.8"/>
      </g>
     </g>
     <g id="text_21">
      <text style="font-size: 8.5px; font-family: 'DejaVu Sans'; text-anchor: end" x="44.806" y="124.446098" transform="rotate(-0 44.806 124.446098)">0.4</text>
     </g>
    </g>
    <g id="ytick_6">
     <g id="line2d_22">
      <g>
       <use xlink:href="#m28030b04ef" x="51.806" y="94.572952" style="stroke: #000000; stroke-width: 0.8"/>
      </g>
     </g>
     <g id="text_22">
      <text style="font-size: 8.5px; font-family: 'DejaVu Sans'; text-anchor: end" x="44.806" y="97.802288" transform="rotate(-0 44.806 97.802288)">0.5</text>
     </g>
    </g>
    <g id="text_23">
     <text style="font-size: 8.5px; font-family: 'DejaVu Sans'; text-anchor: middle" x="25.520609" y="157.852" transform="rotate(-90 25.520609 157.852)">decomposition capacity per molecule</text>
    </g>
   </g>
   <g id="patch_35">
    <path d="M 51.806 227.792 
L 51.806 87.912 
" style="fill: none; stroke: #000000; stroke-width: 0.8; stroke-linejoin: miter; stroke-linecap: square"/>
   </g>
   <g id="patch_36">
    <path d="M 51.806 227.792 
L 398.182488 227.792 
" style="fill: none; stroke: #000000; stroke-width: 0.8; stroke-linejoin: miter; stroke-linecap: square"/>
   </g>
   <g id="legend_1">
    <g id="patch_37">
     <path d="M 58.106 99.530906 
L 72.106 99.530906 
L 72.106 94.630906 
L 58.106 94.630906 
z
" style="fill: #4b5563"/>
    </g>
    <g id="text_24">
     <text style="font-size: 7px; font-family: 'DejaVu Sans'; text-anchor: start" x="77.706" y="99.530906" transform="rotate(-0 77.706 99.530906)">V5 global fit (expected)</text>
    </g>
    <g id="patch_38">
     <path d="M 58.106 109.805594 
L 72.106 109.805594 
L 72.106 104.905594 
L 58.106 104.905594 
z
" style="fill: #2563eb"/>
    </g>
    <g id="text_25">
     <text style="font-size: 7px; font-family: 'DejaVu Sans'; text-anchor: start" x="77.706" y="109.805594" transform="rotate(-0 77.706 109.805594)">V7 class-local</text>
    </g>
   </g>
  </g>
  <g id="axes_2">
   <g id="patch_39">
    <path d="M 441.132488 227.792 
L 787.508975 227.792 
L 787.508975 87.912 
L 441.132488 87.912 
z
" style="fill: #ffffff"/>
   </g>
   <g id="matplotlib.axis_3">
    <g id="xtick_17">
     <g id="line2d_23">
      <g>
       <use xlink:href="#m424ff676e5" x="490.614843" y="227.792" style="stroke: #000000; stroke-width: 0.8"/>
      </g>
     </g>
     <g id="text_26">
      <text style="font-size: 8.5px; font-family: 'DejaVu Sans'; text-anchor: middle" x="490.614843" y="241.250672" transform="rotate(-0 490.614843 241.250672)">5</text>
     </g>
    </g>
    <g id="xtick_18">
     <g id="line2d_24">
      <g>
       <use xlink:href="#m424ff676e5" x="546.844792" y="227.792" style="stroke: #000000; stroke-width: 0.8"/>
      </g>
     </g>
     <g id="text_27">
      <text style="font-size: 8.5px; font-family: 'DejaVu Sans'; text-anchor: middle" x="546.844792" y="241.250672" transform="rotate(-0 546.844792 241.250672)">10</text>
     </g>
    </g>
    <g id="xtick_19">
     <g id="line2d_25">
      <g>
       <use xlink:href="#m424ff676e5" x="603.074742" y="227.792" style="stroke: #000000; stroke-width: 0.8"/>
      </g>
     </g>
     <g id="text_28">
      <text style="font-size: 8.5px; font-family: 'DejaVu Sans'; text-anchor: middle" x="603.074742" y="241.250672" transform="rotate(-0 603.074742 241.250672)">15</text>
     </g>
    </g>
    <g id="xtick_20">
     <g id="line2d_26">
      <g>
       <use xlink:href="#m424ff676e5" x="659.304691" y="227.792" style="stroke: #000000; stroke-width: 0.8"/>
      </g>
     </g>
     <g id="text_29">
      <text style="font-size: 8.5px; font-family: 'DejaVu Sans'; text-anchor: middle" x="659.304691" y="241.250672" transform="rotate(-0 659.304691 241.250672)">20</text>
     </g>
    </g>
    <g id="xtick_21">
     <g id="line2d_27">
      <g>
       <use xlink:href="#m424ff676e5" x="715.53464" y="227.792" style="stroke: #000000; stroke-width: 0.8"/>
      </g>
     </g>
     <g id="text_30">
      <text style="font-size: 8.5px; font-family: 'DejaVu Sans'; text-anchor: middle" x="715.53464" y="241.250672" transform="rotate(-0 715.53464 241.250672)">25</text>
     </g>
    </g>
    <g id="xtick_22">
     <g id="line2d_28">
      <g>
       <use xlink:href="#m424ff676e5" x="771.764589" y="227.792" style="stroke: #000000; stroke-width: 0.8"/>
      </g>
     </g>
     <g id="text_31">
      <text style="font-size: 8.5px; font-family: 'DejaVu Sans'; text-anchor: middle" x="771.764589" y="241.250672" transform="rotate(-0 771.764589 241.250672)">30</text>
     </g>
    </g>
    <g id="text_32">
     <text style="font-size: 8.5px; font-family: 'DejaVu Sans'; text-anchor: middle" x="614.320731" y="253.477078" transform="rotate(-0 614.320731 253.477078)">molecules in the class</text>
    </g>
   </g>
   <g id="matplotlib.axis_4">
    <g id="ytick_7">
     <g id="line2d_29">
      <g>
       <use xlink:href="#m28030b04ef" x="441.132488" y="209.559063" style="stroke: #000000; stroke-width: 0.8"/>
      </g>
     </g>
     <g id="text_33">
      <text style="font-size: 8.5px; font-family: 'DejaVu Sans'; text-anchor: end" x="434.132488" y="212.788399" transform="rotate(-0 434.132488 212.788399)">0.1</text>
     </g>
    </g>
    <g id="ytick_8">
     <g id="line2d_30">
      <g>
       <use xlink:href="#m28030b04ef" x="441.132488" y="180.736843" style="stroke: #000000; stroke-width: 0.8"/>
      </g>
     </g>
     <g id="text_34">
      <text style="font-size: 8.5px; font-family: 'DejaVu Sans'; text-anchor: end" x="434.132488" y="183.966179" transform="rotate(-0 434.132488 183.966179)">0.2</text>
     </g>
    </g>
    <g id="ytick_9">
     <g id="line2d_31">
      <g>
       <use xlink:href="#m28030b04ef" x="441.132488" y="151.914623" style="stroke: #000000; stroke-width: 0.8"/>
      </g>
     </g>
     <g id="text_35">
      <text style="font-size: 8.5px; font-family: 'DejaVu Sans'; text-anchor: end" x="434.132488" y="155.143959" transform="rotate(-0 434.132488 155.143959)">0.3</text>
     </g>
    </g>
    <g id="ytick_10">
     <g id="line2d_32">
      <g>
       <use xlink:href="#m28030b04ef" x="441.132488" y="123.092402" style="stroke: #000000; stroke-width: 0.8"/>
      </g>
     </g>
     <g id="text_36">
      <text style="font-size: 8.5px; font-family: 'DejaVu Sans'; text-anchor: end" x="434.132488" y="126.321738" transform="rotate(-0 434.132488 126.321738)">0.4</text>
     </g>
    </g>
    <g id="ytick_11">
     <g id="line2d_33">
      <g>
       <use xlink:href="#m28030b04ef" x="441.132488" y="94.270182" style="stroke: #000000; stroke-width: 0.8"/>
      </g>
     </g>
     <g id="text_37">
      <text style="font-size: 8.5px; font-family: 'DejaVu Sans'; text-anchor: end" x="434.132488" y="97.499518" transform="rotate(-0 434.132488 97.499518)">0.5</text>
     </g>
    </g>
    <g id="text_38">
     <text style="font-size: 8.5px; font-family: 'DejaVu Sans'; text-anchor: middle" x="414.847097" y="157.852" transform="rotate(-90 414.847097 157.852)">capacity per molecule</text>
    </g>
   </g>
   <g id="PathCollection_1">
    <defs>
     <path id="mf554960f4f" d="M 0 2.645751 
C 0.701661 2.645751 1.374679 2.366978 1.870829 1.870829 
C 2.366978 1.374679 2.645751 0.701661 2.645751 0 
C 2.645751 -0.701661 2.366978 -1.374679 1.870829 -1.870829 
C 1.374679 -2.366978 0.701661 -2.645751 0 -2.645751 
C -0.701661 -2.645751 -1.374679 -2.366978 -1.870829 -1.870829 
C -2.366978 -1.374679 -2.645751 -0.701661 -2.645751 0 
C -2.645751 0.701661 -2.366978 1.374679 -1.870829 1.870829 
C -1.374679 2.366978 -0.701661 2.645751 0 2.645751 
z
" style="stroke: #4b5563"/>
    </defs>
    <g clip-path="url(#p9d602bd13c)">
     <use xlink:href="#mf554960f4f" x="771.764589" y="193.476264" style="fill: #4b5563; stroke: #4b5563"/>
     <use xlink:href="#mf554960f4f" x="659.304691" y="193.447442" style="fill: #4b5563; stroke: #4b5563"/>
     <use xlink:href="#mf554960f4f" x="636.812711" y="193.447442" style="fill: #4b5563; stroke: #4b5563"/>
     <use xlink:href="#mf554960f4f" x="625.566721" y="193.447442" style="fill: #4b5563; stroke: #4b5563"/>
     <use xlink:href="#mf554960f4f" x="625.566721" y="193.447442" style="fill: #4b5563; stroke: #4b5563"/>
     <use xlink:href="#mf554960f4f" x="546.844792" y="193.476264" style="fill: #4b5563; stroke: #4b5563"/>
     <use xlink:href="#mf554960f4f" x="524.352813" y="193.476264" style="fill: #4b5563; stroke: #4b5563"/>
     <use xlink:href="#mf554960f4f" x="490.614843" y="193.41862" style="fill: #4b5563; stroke: #4b5563"/>
     <use xlink:href="#mf554960f4f" x="490.614843" y="193.41862" style="fill: #4b5563; stroke: #4b5563"/>
     <use xlink:href="#mf554960f4f" x="490.614843" y="193.41862" style="fill: #4b5563; stroke: #4b5563"/>
     <use xlink:href="#mf554960f4f" x="479.368853" y="193.41862" style="fill: #4b5563; stroke: #4b5563"/>
     <use xlink:href="#mf554960f4f" x="479.368853" y="193.41862" style="fill: #4b5563; stroke: #4b5563"/>
     <use xlink:href="#mf554960f4f" x="468.122863" y="193.41862" style="fill: #4b5563; stroke: #4b5563"/>
     <use xlink:href="#mf554960f4f" x="468.122863" y="193.41862" style="fill: #4b5563; stroke: #4b5563"/>
     <use xlink:href="#mf554960f4f" x="468.122863" y="193.41862" style="fill: #4b5563; stroke: #4b5563"/>
     <use xlink:href="#mf554960f4f" x="456.876873" y="193.41862" style="fill: #4b5563; stroke: #4b5563"/>
    </g>
   </g>
   <g id="patch_40">
    <path d="M 441.132488 227.792 
L 441.132488 87.912 
" style="fill: none; stroke: #000000; stroke-width: 0.8; stroke-linejoin: miter; stroke-linecap: square"/>
   </g>
   <g id="patch_41">
    <path d="M 441.132488 227.792 
L 787.508975 227.792 
" style="fill: none; stroke: #000000; stroke-width: 0.8; stroke-linejoin: miter; stroke-linecap: square"/>
   </g>
   <g id="PathCollection_2">
    <defs>
     <path id="mab12607046" d="M 0 3.24037 
C 0.859356 3.24037 1.683631 2.898944 2.291288 2.291288 
C 2.898944 1.683631 3.24037 0.859356 3.24037 0 
C 3.24037 -0.859356 2.898944 -1.683631 2.291288 -2.291288 
C 1.683631 -2.898944 0.859356 -3.24037 0 -3.24037 
C -0.859356 -3.24037 -1.683631 -2.898944 -2.291288 -2.291288 
C -2.898944 -1.683631 -3.24037 -0.859356 -3.24037 0 
C -3.24037 0.859356 -2.898944 1.683631 -2.291288 2.291288 
C -1.683631 2.898944 -0.859356 3.24037 0 3.24037 
z
" style="stroke: #2563eb"/>
    </defs>
    <g clip-path="url(#p9d602bd13c)">
     <use xlink:href="#mab12607046" x="771.764589" y="219.156863" style="fill: #2563eb; stroke: #2563eb"/>
     <use xlink:href="#mab12607046" x="659.304691" y="166.325733" style="fill: #2563eb; stroke: #2563eb"/>
     <use xlink:href="#mab12607046" x="636.812711" y="158.313156" style="fill: #2563eb; stroke: #2563eb"/>
     <use xlink:href="#mab12607046" x="625.566721" y="221.433818" style="fill: #2563eb; stroke: #2563eb"/>
     <use xlink:href="#mab12607046" x="625.566721" y="204.486353" style="fill: #2563eb; stroke: #2563eb"/>
     <use xlink:href="#mab12607046" x="546.844792" y="180.736843" style="fill: #2563eb; stroke: #2563eb"/>
     <use xlink:href="#mab12607046" x="524.352813" y="130.297957" style="fill: #2563eb; stroke: #2563eb"/>
     <use xlink:href="#mab12607046" x="490.614843" y="123.092402" style="fill: #2563eb; stroke: #2563eb"/>
     <use xlink:href="#mab12607046" x="490.614843" y="180.736843" style="fill: #2563eb; stroke: #2563eb"/>
     <use xlink:href="#mab12607046" x="490.614843" y="123.092402" style="fill: #2563eb; stroke: #2563eb"/>
     <use xlink:href="#mab12607046" x="479.368853" y="94.270182" style="fill: #2563eb; stroke: #2563eb"/>
     <use xlink:href="#mab12607046" x="479.368853" y="94.270182" style="fill: #2563eb; stroke: #2563eb"/>
     <use xlink:href="#mab12607046" x="468.122863" y="142.316823" style="fill: #2563eb; stroke: #2563eb"/>
     <use xlink:href="#mab12607046" x="468.122863" y="142.316823" style="fill: #2563eb; stroke: #2563eb"/>
     <use xlink:href="#mab12607046" x="468.122863" y="142.316823" style="fill: #2563eb; stroke: #2563eb"/>
     <use xlink:href="#mab12607046" x="456.876873" y="94.270182" style="fill: #2563eb; stroke: #2563eb"/>
    </g>
   </g>
   <g id="text_39">
    <text style="font-size: 5.6px; font-family: 'DejaVu Sans'; text-anchor: start; fill: #6b7280" x="774.764589" y="216.156863" transform="rotate(-0 774.764589 216.156863)">peptide protein</text>
   </g>
   <g id="text_40">
    <text style="font-size: 5.6px; font-family: 'DejaVu Sans'; text-anchor: start; fill: #6b7280" x="662.304691" y="163.325733" transform="rotate(-0 662.304691 163.325733)">mono oligosaccha</text>
   </g>
   <g id="text_41">
    <text style="font-size: 5.6px; font-family: 'DejaVu Sans'; text-anchor: start; fill: #6b7280" x="639.812711" y="155.313156" transform="rotate(-0 639.812711 155.313156)">free amino acid</text>
   </g>
   <g id="text_42">
    <text style="font-size: 5.6px; font-family: 'DejaVu Sans'; text-anchor: start; fill: #6b7280" x="628.566721" y="218.433818" transform="rotate(-0 628.566721 218.433818)">acylglycerol</text>
   </g>
   <g id="text_43">
    <text style="font-size: 5.6px; font-family: 'DejaVu Sans'; text-anchor: start; fill: #6b7280" x="628.566721" y="201.486353" transform="rotate(-0 628.566721 201.486353)">fatty acid</text>
   </g>
   <g id="text_44">
    <text style="font-size: 5.6px; font-family: 'DejaVu Sans'; text-anchor: start; fill: #6b7280" x="527.352813" y="127.297957" transform="rotate(-0 527.352813 127.297957)">carboxylic acid </text>
   </g>
   <g id="text_45">
    <text style="font-size: 5.6px; font-family: 'DejaVu Sans'; text-anchor: start; fill: #6b7280" x="493.614843" y="120.092402" transform="rotate(-0 493.614843 120.092402)">phospholipid sph</text>
   </g>
   <g id="text_46">
    <text style="font-size: 5.6px; font-family: 'DejaVu Sans'; text-anchor: start; fill: #6b7280" x="493.614843" y="120.092402" transform="rotate(-0 493.614843 120.092402)">purine</text>
   </g>
   <g id="text_47">
    <text style="font-size: 5.6px; font-family: 'DejaVu Sans'; text-anchor: start; fill: #6b7280" x="482.368853" y="91.270182" transform="rotate(-0 482.368853 91.270182)">chromophore pigm</text>
   </g>
   <g id="text_48">
    <text style="font-size: 5.6px; font-family: 'DejaVu Sans'; text-anchor: start; fill: #6b7280" x="482.368853" y="91.270182" transform="rotate(-0 482.368853 91.270182)">sulfur thiol cof</text>
   </g>
   <g id="text_49">
    <text style="font-size: 5.6px; font-family: 'DejaVu Sans'; text-anchor: start; fill: #6b7280" x="471.122863" y="139.316823" transform="rotate(-0 471.122863 139.316823)">nucleic acid pol</text>
   </g>
   <g id="text_50">
    <text style="font-size: 5.6px; font-family: 'DejaVu Sans'; text-anchor: start; fill: #6b7280" x="471.122863" y="139.316823" transform="rotate(-0 471.122863 139.316823)">phosphate metabo</text>
   </g>
   <g id="text_51">
    <text style="font-size: 5.6px; font-family: 'DejaVu Sans'; text-anchor: start; fill: #6b7280" x="471.122863" y="139.316823" transform="rotate(-0 471.122863 139.316823)">pyrimidine</text>
   </g>
   <g id="text_52">
    <text style="font-size: 5.6px; font-family: 'DejaVu Sans'; text-anchor: start; fill: #6b7280" x="459.876873" y="91.270182" transform="rotate(-0 459.876873 91.270182)">small nitrogenou</text>
   </g>
   <g id="legend_2">
    <g id="PathCollection_3">
     <g>
      <use xlink:href="#mab12607046" x="660.09585" y="97.693406" style="fill: #2563eb; stroke: #2563eb"/>
     </g>
    </g>
    <g id="text_53">
     <text style="font-size: 7px; font-family: 'DejaVu Sans'; text-anchor: start" x="672.69585" y="99.530906" transform="rotate(-0 672.69585 99.530906)">V7 class-local</text>
    </g>
    <g id="PathCollection_4">
     <g>
      <use xlink:href="#mf554960f4f" x="660.09585" y="107.968094" style="fill: #4b5563; stroke: #4b5563"/>
     </g>
    </g>
    <g id="text_54">
     <text style="font-size: 7px; font-family: 'DejaVu Sans'; text-anchor: start" x="672.69585" y="109.805594" transform="rotate(-0 672.69585 109.805594)">V5 global (flat by construction)</text>
    </g>
   </g>
  </g>
  <g id="text_55">
   <text style="font-weight: 700; font-size: 11px; font-family: 'DejaVu Sans'; fill: #1a1a1a" transform="translate(12.96 21.318281)">3 — Capacity reallocation: rare chemistry gets its own decomposition</text>
   <text style="font-weight: 700; font-size: 11px; font-family: 'DejaVu Sans'; fill: #1a1a1a" transform="translate(12.96 33.721813)">V5 allocated 24 components globally; V7 fits every class alone</text>
  </g>
 </g>
 <defs>
  <clipPath id="pa3b8441d86">
   <rect x="51.806" y="87.912" width="346.376488" height="139.88"/>
  </clipPath>
  <clipPath id="p9d602bd13c">
   <rect x="441.132488" y="87.912" width="346.376488" height="139.88"/>
  </clipPath>
 </defs>
</svg>
