<?xml version="1.0" encoding="utf-8" standalone="no"?>
<!DOCTYPE svg PUBLIC "-//W3C//DTD SVG 1.1//EN"
  "http://www.w3.org/Graphics/SVG/1.1/DTD/svg11.dtd">
<svg xmlns:xlink="http://www.w3.org/1999/xlink" width="617.4pt" height="447.264pt" viewBox="0 0 617.4 447.264" xmlns="http://www.w3.org/2000/svg" version="1.1">
 <metadata>
  <rdf:RDF xmlns:dc="http://purl.org/dc/elements/1.1/" xmlns:cc="http://creativecommons.org/ns#" xmlns:rdf="http://www.w3.org/1999/02/22-rdf-syntax-ns#">
   <cc:Work>
    <dc:type rdf:resource="http://purl.org/dc/dcmitype/StillImage"/>
    <dc:date>2026-08-05T21:25:20.829874</dc:date>
    <dc:format>image/svg+xml</dc:format>
    <dc:creator>
     <cc:Agent>
      <dc:title>Matplotlib v3.10.8, https://matplotlib.org/</dc:title>
     </cc:Agent>
    </dc:creator>
   </cc:Work>
  </rdf:RDF>
 </metadata>
 <defs>
  <style type="text/css">*{stroke-linejoin: round; stroke-linecap: butt}</style>
 </defs>
 <g id="figure_1">
  <g id="patch_1">
   <path d="M 0 447.264 
L 617.4 447.264 
L 617.4 0 
L 0 0 
z
" style="fill: #ffffff"/>
  </g>
  <g id="axes_1">
   <g id="patch_2">
    <path d="M 36.713837 88.818774 
L 302.690563 88.818774 
Q 302.808859 88.818774 302.808859 88.734505 
L 302.808859 69.487511 
Q 302.808859 69.403242 302.690563 69.403242 
L 36.713837 69.403242 
Q 36.595541 69.403242 36.595541 69.487511 
L 36.595541 88.734505 
Q 36.595541 88.818774 36.713837 88.818774 
z
" clip-path="url(#p15c4509a0d)" style="fill: #dbeafe; stroke: #2563eb; stroke-width: 1.1; stroke-linejoin: miter"/>
   </g>
   <g id="patch_3">
    <path d="M 36.713837 112.414038 
L 302.690563 112.414038 
Q 302.808859 112.414038 302.808859 112.329769 
L 302.808859 93.082775 
Q 302.808859 92.998506 302.690563 92.998506 
L 36.713837 92.998506 
Q 36.595541 92.998506 36.595541 93.082775 
L 36.595541 112.329769 
Q 36.595541 112.414038 36.713837 112.414038 
z
" clip-path="url(#p15c4509a0d)" style="fill: #dbeafe; stroke: #2563eb; stroke-width: 1.1; stroke-linejoin: miter"/>
   </g>
   <g id="patch_4">
    <path d="M 36.713837 136.009302 
L 302.690563 136.009302 
Q 302.808859 136.009302 302.808859 135.925033 
L 302.808859 116.678039 
Q 302.808859 116.59377 302.690563 116.59377 
L 36.713837 116.59377 
Q 36.595541 116.59377 36.595541 116.678039 
L 36.595541 135.925033 
Q 36.595541 136.009302 36.713837 136.009302 
z
" clip-path="url(#p15c4509a0d)" style="fill: #dbeafe; stroke: #2563eb; stroke-width: 1.1; stroke-linejoin: miter"/>
   </g>
   <g id="patch_5">
    <path d="M 36.713837 159.604566 
L 302.690563 159.604566 
Q 302.808859 159.604566 302.808859 159.520297 
L 302.808859 140.273303 
Q 302.808859 140.189034 302.690563 140.189034 
L 36.713837 140.189034 
Q 36.595541 140.189034 36.595541 140.273303 
L 36.595541 159.520297 
Q 36.595541 159.604566 36.713837 159.604566 
z
" clip-path="url(#p15c4509a0d)" style="fill: #dbeafe; stroke: #2563eb; stroke-width: 1.1; stroke-linejoin: miter"/>
   </g>
   <g id="patch_6">
    <path d="M 36.713837 183.19983 
L 302.690563 183.19983 
Q 302.808859 183.19983 302.808859 183.115561 
L 302.808859 163.868567 
Q 302.808859 163.784298 302.690563 163.784298 
L 36.713837 163.784298 
Q 36.595541 163.784298 36.595541 163.868567 
L 36.595541 183.115561 
Q 36.595541 183.19983 36.713837 183.19983 
z
" clip-path="url(#p15c4509a0d)" style="fill: #dbeafe; stroke: #2563eb; stroke-width: 1.1; stroke-linejoin: miter"/>
   </g>
   <g id="patch_7">
    <path d="M 36.713837 206.795094 
L 302.690563 206.795094 
Q 302.808859 206.795094 302.808859 206.710825 
L 302.808859 187.463831 
Q 302.808859 187.379562 302.690563 187.379562 
L 36.713837 187.379562 
Q 36.595541 187.379562 36.595541 187.463831 
L 36.595541 206.710825 
Q 36.595541 206.795094 36.713837 206.795094 
z
" clip-path="url(#p15c4509a0d)" style="fill: #dbeafe; stroke: #2563eb; stroke-width: 1.1; stroke-linejoin: miter"/>
   </g>
   <g id="patch_8">
    <path d="M 36.713837 230.390358 
L 302.690563 230.390358 
Q 302.808859 230.390358 302.808859 230.306089 
L 302.808859 211.059095 
Q 302.808859 210.974826 302.690563 210.974826 
L 36.713837 210.974826 
Q 36.595541 210.974826 36.595541 211.059095 
L 36.595541 230.306089 
Q 36.595541 230.390358 36.713837 230.390358 
z
" clip-path="url(#p15c4509a0d)" style="fill: #dbeafe; stroke: #2563eb; stroke-width: 1.1; stroke-linejoin: miter"/>
   </g>
   <g id="patch_9">
    <path d="M 36.713837 253.985622 
L 302.690563 253.985622 
Q 302.808859 253.985622 302.808859 253.901353 
L 302.808859 234.654359 
Q 302.808859 234.57009 302.690563 234.57009 
L 36.713837 234.57009 
Q 36.595541 234.57009 36.595541 234.654359 
L 36.595541 253.901353 
Q 36.595541 253.985622 36.713837 253.985622 
z
" clip-path="url(#p15c4509a0d)" style="fill: #dbeafe; stroke: #2563eb; stroke-width: 1.1; stroke-linejoin: miter"/>
   </g>
   <g id="patch_10">
    <path d="M 36.713837 277.580886 
L 302.690563 277.580886 
Q 302.808859 277.580886 302.808859 277.496617 
L 302.808859 258.249623 
Q 302.808859 258.165354 302.690563 258.165354 
L 36.713837 258.165354 
Q 36.595541 258.165354 36.595541 258.249623 
L 36.595541 277.496617 
Q 36.595541 277.580886 36.713837 277.580886 
z
" clip-path="url(#p15c4509a0d)" style="fill: #dbeafe; stroke: #2563eb; stroke-width: 1.1; stroke-linejoin: miter"/>
   </g>
   <g id="patch_11">
    <path d="M 36.713837 330.67023 
L 302.690563 330.67023 
Q 302.808859 330.67023 302.808859 330.585961 
L 302.808859 311.338967 
Q 302.808859 311.254698 302.690563 311.254698 
L 36.713837 311.254698 
Q 36.595541 311.254698 36.595541 311.338967 
L 36.595541 330.585961 
Q 36.595541 330.67023 36.713837 330.67023 
z
" clip-path="url(#p15c4509a0d)" style="fill: #ffffff; stroke: #9ca3af; stroke-width: 1.1; stroke-linejoin: miter"/>
   </g>
   <g id="patch_12">
    <path d="M 36.713837 354.265494 
L 302.690563 354.265494 
Q 302.808859 354.265494 302.808859 354.181225 
L 302.808859 334.934231 
Q 302.808859 334.849962 302.690563 334.849962 
L 36.713837 334.849962 
Q 36.595541 334.849962 36.595541 334.934231 
L 36.595541 354.181225 
Q 36.595541 354.265494 36.713837 354.265494 
z
" clip-path="url(#p15c4509a0d)" style="fill: #ffffff; stroke: #9ca3af; stroke-width: 1.1; stroke-linejoin: miter"/>
   </g>
   <g id="patch_13">
    <path d="M 36.713837 377.860758 
L 302.690563 377.860758 
Q 302.808859 377.860758 302.808859 377.776489 
L 302.808859 358.529495 
Q 302.808859 358.445226 302.690563 358.445226 
L 36.713837 358.445226 
Q 36.595541 358.445226 36.595541 358.529495 
L 36.595541 377.776489 
Q 36.595541 377.860758 36.713837 377.860758 
z
" clip-path="url(#p15c4509a0d)" style="fill: #ffffff; stroke: #9ca3af; stroke-width: 1.1; stroke-linejoin: miter"/>
   </g>
   <g id="patch_14">
    <path d="M 36.713837 401.456022 
L 302.690563 401.456022 
Q 302.808859 401.456022 302.808859 401.371753 
L 302.808859 382.124759 
Q 302.808859 382.04049 302.690563 382.04049 
L 36.713837 382.04049 
Q 36.595541 382.04049 36.595541 382.124759 
L 36.595541 401.371753 
Q 36.595541 401.456022 36.713837 401.456022 
z
" clip-path="url(#p15c4509a0d)" style="fill: #ffffff; stroke: #9ca3af; stroke-width: 1.1; stroke-linejoin: miter"/>
   </g>
   <g id="patch_15">
    <path d="M 36.713837 425.051286 
L 302.690563 425.051286 
Q 302.808859 425.051286 302.808859 424.967017 
L 302.808859 405.720023 
Q 302.808859 405.635754 302.690563 405.635754 
L 36.713837 405.635754 
Q 36.595541 405.635754 36.595541 405.720023 
L 36.595541 424.967017 
Q 36.595541 425.051286 36.713837 425.051286 
z
" clip-path="url(#p15c4509a0d)" style="fill: #ffffff; stroke: #9ca3af; stroke-width: 1.1; stroke-linejoin: miter"/>
   </g>
   <g id="patch_16">
    <path d="M 379.772237 375.332694 
L 592.515763 375.332694 
Q 592.634059 375.332694 592.634059 375.248425 
L 592.634059 265.833815 
Q 592.634059 265.749546 592.515763 265.749546 
L 379.772237 265.749546 
Q 379.653941 265.749546 379.653941 265.833815 
L 379.653941 375.248425 
Q 379.653941 375.332694 379.772237 375.332694 
z
" clip-path="url(#p15c4509a0d)" style="fill: #dcfce7; stroke: #15803d; stroke-width: 1.1; stroke-linejoin: miter"/>
   </g>
   <g id="text_1">
    <text style="font-weight: 700; font-size: 12px; font-family: 'DejaVu Sans'; text-anchor: start; fill: #1a1a1a" x="12.96" y="26.291565" transform="rotate(-0 12.96 26.291565)">7 — Frozen artefact dependency graph</text>
   </g>
   <g id="text_2">
    <text style="font-size: 8px; font-family: 'DejaVu Sans'; text-anchor: start; fill: #6b7280" x="12.96" y="42.634014" transform="rotate(-0 12.96 42.634014)">Phase 00 READS every asset below and WRITES none of them.</text>
   </g>
   <g id="text_3">
    <text style="font-weight: 700; font-size: 8.6px; font-family: 'DejaVu Sans'; text-anchor: start; fill: #2563eb" x="36.6192" y="63.52128" transform="rotate(-0 36.6192 63.52128)">READ and used by Phase 00</text>
   </g>
   <g id="text_4">
    <text style="font-size: 6.9px; font-family: 'DejaVu Sans'; text-anchor: middle; fill: #1a1a1a" x="169.7022" y="80.919024" transform="rotate(-0 169.7022 80.919024)">manifold_components.npz</text>
   </g>
   <g id="text_5">
    <text style="font-size: 6.6px; font-family: 'DejaVu Sans'; text-anchor: start; fill: #6b7280" x="308.7" y="80.932195" transform="rotate(-0 308.7 80.932195)">atlas fingerprint; V5 control representation</text>
   </g>
   <g id="text_6">
    <text style="font-size: 6.9px; font-family: 'DejaVu Sans'; text-anchor: middle; fill: #1a1a1a" x="169.7022" y="104.610241" transform="rotate(-0 169.7022 104.610241)">manifold.json</text>
   </g>
   <g id="text_7">
    <text style="font-size: 6.6px; font-family: 'DejaVu Sans'; text-anchor: start; fill: #6b7280" x="308.7" y="104.527459" transform="rotate(-0 308.7 104.527459)">corpus card cross-check; preprocessing spec</text>
   </g>
   <g id="text_8">
    <text style="font-size: 6.9px; font-family: 'DejaVu Sans'; text-anchor: middle; fill: #1a1a1a" x="169.7022" y="128.205505" transform="rotate(-0 169.7022 128.205505)">MANIFEST.json</text>
   </g>
   <g id="text_9">
    <text style="font-size: 6.6px; font-family: 'DejaVu Sans'; text-anchor: start; fill: #6b7280" x="308.7" y="128.122723" transform="rotate(-0 308.7 128.122723)">frozen-asset integrity check</text>
   </g>
   <g id="text_10">
    <text style="font-size: 6.9px; font-family: 'DejaVu Sans'; text-anchor: middle; fill: #1a1a1a" x="169.7022" y="151.704816" transform="rotate(-0 169.7022 151.704816)">component_registry_v1.json</text>
   </g>
   <g id="text_11">
    <text style="font-size: 6.6px; font-family: 'DejaVu Sans'; text-anchor: start; fill: #6b7280" x="308.7" y="151.717987" transform="rotate(-0 308.7 151.717987)">baseline purity/stability statistics</text>
   </g>
   <g id="text_12">
    <text style="font-size: 6.9px; font-family: 'DejaVu Sans'; text-anchor: middle; fill: #1a1a1a" x="169.7022" y="175.204126" transform="rotate(-0 169.7022 175.204126)">sv_reps.npz</text>
   </g>
   <g id="text_13">
    <text style="font-size: 6.6px; font-family: 'DejaVu Sans'; text-anchor: start; fill: #6b7280" x="308.7" y="175.313251" transform="rotate(-0 308.7 175.313251)">V5 control baseline under the V7 harness</text>
   </g>
   <g id="text_14">
    <text style="font-size: 6.9px; font-family: 'DejaVu Sans'; text-anchor: middle; fill: #1a1a1a" x="169.7022" y="198.895344" transform="rotate(-0 169.7022 198.895344)">v63_analyte_audit.csv</text>
   </g>
   <g id="text_15">
    <text style="font-size: 6.6px; font-family: 'DejaVu Sans'; text-anchor: start; fill: #6b7280" x="308.7" y="198.908515" transform="rotate(-0 308.7 198.908515)">frozen partition; alias audit</text>
   </g>
   <g id="text_16">
    <text style="font-size: 6.9px; font-family: 'DejaVu Sans'; text-anchor: middle; fill: #1a1a1a" x="169.7022" y="222.586561" transform="rotate(-0 169.7022 222.586561)">pipeline.py</text>
   </g>
   <g id="text_17">
    <text style="font-size: 6.6px; font-family: 'DejaVu Sans'; text-anchor: start; fill: #6b7280" x="308.7" y="222.503779" transform="rotate(-0 308.7 222.503779)">corpus load; NMF rebuild</text>
   </g>
   <g id="text_18">
    <text style="font-size: 6.9px; font-family: 'DejaVu Sans'; text-anchor: middle; fill: #1a1a1a" x="169.7022" y="246.181825" transform="rotate(-0 169.7022 246.181825)">representation.py</text>
   </g>
   <g id="text_19">
    <text style="font-size: 6.6px; font-family: 'DejaVu Sans'; text-anchor: start; fill: #6b7280" x="308.7" y="246.099043" transform="rotate(-0 308.7 246.099043)">NMF rebuild</text>
   </g>
   <g id="text_20">
    <text style="font-size: 6.9px; font-family: 'DejaVu Sans'; text-anchor: middle; fill: #1a1a1a" x="169.7022" y="269.777089" transform="rotate(-0 169.7022 269.777089)">*</text>
   </g>
   <g id="text_21">
    <text style="font-size: 6.6px; font-family: 'DejaVu Sans'; text-anchor: start; fill: #6b7280" x="308.7" y="269.694307" transform="rotate(-0 308.7 269.694307)">corpus load</text>
   </g>
   <g id="text_22">
    <text style="font-weight: 700; font-size: 8.6px; font-family: 'DejaVu Sans'; text-anchor: start; fill: #6b7280" x="36.6192" y="305.372736" transform="rotate(-0 36.6192 305.372736)">READ-ONLY, not used by Phase 00</text>
   </g>
   <g id="text_23">
    <text style="font-size: 6.9px; font-family: 'DejaVu Sans'; text-anchor: middle; fill: #1a1a1a" x="169.7022" y="322.77048" transform="rotate(-0 169.7022 322.77048)">component_theme_weights_v1.json</text>
   </g>
   <g id="text_24">
    <text style="font-size: 6.9px; font-family: 'DejaVu Sans'; text-anchor: middle; fill: #1a1a1a" x="169.7022" y="346.365744" transform="rotate(-0 169.7022 346.365744)">biochemical_ontology_v2.yaml</text>
   </g>
   <g id="text_25">
    <text style="font-size: 6.9px; font-family: 'DejaVu Sans'; text-anchor: middle; fill: #1a1a1a" x="169.7022" y="369.961008" transform="rotate(-0 169.7022 369.961008)">mss_motifs_v1.yaml</text>
   </g>
   <g id="text_26">
    <text style="font-size: 6.9px; font-family: 'DejaVu Sans'; text-anchor: middle; fill: #1a1a1a" x="169.7022" y="393.556272" transform="rotate(-0 169.7022 393.556272)">reference_normalization_v1.json</text>
   </g>
   <g id="text_27">
    <text style="font-size: 6.9px; font-family: 'DejaVu Sans'; text-anchor: middle; fill: #1a1a1a" x="169.7022" y="417.151536" transform="rotate(-0 169.7022 417.151536)">reference_support.npz</text>
   </g>
   <g id="text_28">
    <text style="font-size: 7.2px; font-family: 'DejaVu Sans'; fill: #1a1a1a" transform="translate(456.971063 275.076776)">WRITE TARGETS</text>
    <text style="font-size: 7.2px; font-family: 'DejaVu Sans'; fill: #1a1a1a" transform="translate(486.144 284.50692)"/>
    <text style="font-size: 7.2px; font-family: 'DejaVu Sans'; fill: #1a1a1a" transform="translate(436.3155 293.937064)">results/v7_rebuild/phase00/</text>
    <text style="font-size: 7.2px; font-family: 'DejaVu Sans'; fill: #1a1a1a" transform="translate(432.396563 303.567457)">  tables/ · manifests/ · figures/</text>
    <text style="font-size: 7.2px; font-family: 'DejaVu Sans'; fill: #1a1a1a" transform="translate(435.395812 312.997601)">  reports/ · logs/ · validation/</text>
    <text style="font-size: 7.2px; font-family: 'DejaVu Sans'; fill: #1a1a1a" transform="translate(486.144 322.427745)"/>
    <text style="font-size: 7.2px; font-family: 'DejaVu Sans'; fill: #1a1a1a" transform="translate(456.3675 331.857889)">NEVER WRITTEN</text>
    <text style="font-size: 7.2px; font-family: 'DejaVu Sans'; fill: #1a1a1a" transform="translate(450.55125 341.288032)">  assets/foundation/</text>
    <text style="font-size: 7.2px; font-family: 'DejaVu Sans'; fill: #1a1a1a" transform="translate(450.684562 350.718176)">  results/v5_rebuild/</text>
    <text style="font-size: 7.2px; font-family: 'DejaVu Sans'; fill: #1a1a1a" transform="translate(450.684562 360.34857)">  results/v6_rebuild/</text>
    <text style="font-size: 7.2px; font-family: 'DejaVu Sans'; fill: #1a1a1a" transform="translate(466.99875 369.978964)">  src/gaira/</text>
   </g>
  </g>
 </g>
 <defs>
  <clipPath id="p15c4509a0d">
   <rect x="12.96" y="12.96" width="591.48" height="421.344"/>
  </clipPath>
 </defs>
</svg>
